<svg width="689" height="136" viewBox="0 0 689 136" fill="none" xmlns="http://www.w3.org/2000/svg">
<path d="M345.44 135.78V0" stroke="#8F98AC" stroke-miterlimit="10"/>
<path d="M34.0401 103.36C30.2501 103.36 27.3001 105.04 25.4801 107.85V104.9C25.4801 104.34 25.2001 103.92 24.5001 103.92H22.5401C21.9801 103.92 21.5601 104.2 21.5601 104.9V134.79C21.5601 135.35 21.8401 135.77 22.5401 135.77H24.5001C25.0601 135.77 25.4801 135.49 25.4801 134.79V122.72C27.3001 125.39 30.2501 127.21 34.0401 127.21C40.3601 127.21 45.5501 122.02 45.5501 115.28C45.5501 108.54 40.3601 103.35 34.0401 103.35V103.36ZM33.4801 123.43C28.8501 123.43 25.3401 119.92 25.3401 115.29C25.3401 110.66 28.8501 107.15 33.4801 107.15C38.1101 107.15 41.6201 110.66 41.6201 115.29C41.6201 119.92 38.1101 123.43 33.4801 123.43ZM71.7901 103.36C67.0201 103.36 63.5101 106.03 62.9501 110.24C62.9501 110.94 63.2301 111.22 63.9301 111.22H65.8901C66.4501 111.22 66.7301 110.94 66.8701 110.38C67.2901 108.27 69.4001 107.15 71.6401 107.15C74.3101 107.15 76.5501 108.55 76.5501 112.2V115.29C75.0101 113.61 72.7601 112.62 69.8101 112.62C65.6001 112.62 61.8101 115.01 61.8101 119.92C61.8101 124.83 65.6001 127.22 69.8101 127.22C72.7601 127.22 75.1401 126.24 76.5501 124.27V125.67C76.5501 126.23 76.8301 126.65 77.5301 126.65H79.4901C80.0501 126.65 80.4701 126.37 80.4701 125.67V111.92C80.7501 106.45 76.9601 103.36 71.7701 103.36H71.7901ZM71.2301 123.99C67.7201 123.99 66.0401 122.31 66.0401 120.06C66.0401 117.81 67.7201 116.13 71.2301 116.13C74.4601 116.13 76.8401 117.67 76.8401 120.06C76.8401 122.31 74.4501 123.99 71.2301 123.99ZM109.4 103.64C107.01 103.92 104.91 104.9 103.51 107.43V104.9C103.51 104.34 103.23 103.92 102.53 103.92H100.57C100.01 103.92 99.5901 104.2 99.5901 104.9V125.81C99.5901 126.37 99.8701 126.79 100.57 126.79H102.53C103.09 126.79 103.51 126.51 103.51 125.81V114.58C103.51 109.67 106.46 107.84 109.68 107.7C110.1 107.7 110.38 107.28 110.38 106.72V104.61C110.38 103.91 110.1 103.49 109.4 103.63V103.64ZM138.17 103.92H134.66V97.5999C134.66 97.0399 134.38 96.6199 133.68 96.6199H131.58C131.02 96.6199 130.6 96.8999 130.6 97.5999V103.92H127.09C126.53 103.92 126.11 104.2 126.11 104.9V106.72C126.11 107.28 126.39 107.7 127.09 107.7H130.6V125.66C130.6 126.22 130.88 126.64 131.58 126.64H133.54C134.1 126.64 134.52 126.36 134.52 125.66V107.7H138.03C138.59 107.7 139.01 107.42 139.01 106.72V104.9C139.15 104.2 138.73 103.92 138.17 103.92ZM166.52 103.36C163.71 103.36 161.47 104.2 159.78 106.73V104.91C159.78 104.35 159.5 103.93 158.8 103.93H156.84C156.28 103.93 155.86 104.21 155.86 104.91V125.82C155.86 126.38 156.14 126.8 156.84 126.8H158.8C159.36 126.8 159.78 126.52 159.78 125.82V113.89C159.78 108.98 162.59 107.29 165.53 107.29C168.2 107.29 170.3 108.97 170.3 112.2V125.81C170.3 126.37 170.58 126.79 171.28 126.79H173.24C173.8 126.79 174.22 126.51 174.22 125.81V112.06C174.22 106.59 170.71 103.36 166.5 103.36H166.52ZM203.57 103.36C196.41 103.36 191.78 108.55 191.78 115.29C191.78 122.03 196.55 127.22 203.57 127.22C208.2 127.22 211.99 124.83 213.53 121.33C213.81 120.77 213.39 120.35 212.69 120.35H210.44C209.88 120.35 209.6 120.63 209.32 120.91C208.2 122.45 206.23 123.58 203.57 123.58C199.5 123.58 196.41 121.19 195.71 116.98H213.53C214.09 116.98 214.51 116.7 214.51 116.14V115.3C214.65 108.98 210.44 103.37 203.56 103.37L203.57 103.36ZM195.85 113.6C196.41 109.67 199.36 107 203.57 107C206.94 107 210.17 109.11 210.73 113.6H195.85ZM242.3 103.64C239.91 103.92 237.81 104.9 236.41 107.43V104.9C236.41 104.34 236.13 103.92 235.43 103.92H233.47C232.91 103.92 232.49 104.2 232.49 104.9V125.81C232.49 126.37 232.77 126.79 233.47 126.79H235.43C235.99 126.79 236.41 126.51 236.41 125.81V114.58C236.41 109.67 239.36 107.84 242.58 107.7C243 107.7 243.28 107.28 243.28 106.72V104.61C243.28 103.91 242.86 103.49 242.3 103.63V103.64ZM263.35 110.1C263.35 107.99 265.45 107.01 267.7 107.01C269.66 107.01 271.49 107.71 271.91 109.82C272.05 110.38 272.33 110.66 272.89 110.66H274.85C275.41 110.66 275.83 110.38 275.83 109.68C275.41 105.61 271.9 103.36 267.69 103.36C263.06 103.36 259.41 106.03 259.41 110.1C259.41 118.66 272.46 115.29 272.46 120.48C272.46 122.58 270.36 123.57 267.69 123.57C265.44 123.57 263.48 122.87 263.06 120.76C262.92 120.2 262.64 119.92 262.08 119.92H260.12C259.56 119.92 259.14 120.2 259.14 120.9C259.56 124.97 263.07 127.22 267.84 127.22C272.89 127.22 276.54 124.55 276.54 120.48C276.4 111.92 263.35 115.29 263.35 110.1Z" fill="#414142"/>
<path d="M107.23 50.8698C105.27 48.9098 104 46.2398 104 43.2898C104 40.3398 105.26 37.6798 107.23 35.7098L115.23 27.7098L95.5799 8.05983C93.6199 6.09983 90.9499 4.82983 87.9999 4.82983C81.9699 4.82983 77.1899 9.73983 77.1899 15.6398C77.1899 18.7298 78.4499 21.5298 80.5599 23.4998L100.35 43.2898L80.2799 63.2198C78.3199 65.1798 77.1899 67.8498 77.1899 70.7998C77.1899 76.6898 81.9599 81.6098 87.9999 81.6098C90.9499 81.6098 93.7499 80.3498 95.7199 78.3798L115.23 58.8698L107.23 50.8698Z" fill="#F27024"/>
<path d="M22.61 34.3099C22.75 32.4899 23.17 30.7999 24.01 29.1199C24.85 27.4399 25.97 26.0299 27.52 24.7699C28.92 23.5099 30.61 22.5199 32.57 21.8199C34.53 21.1199 36.64 20.6999 38.89 20.6999C43.52 20.6999 47.17 22.0999 49.42 24.7699C51.81 27.4399 52.93 30.6599 52.93 34.4499H22.62V34.3099H22.61ZM72 27.0199C70.18 22.2499 67.79 18.1799 64.56 14.8099C61.33 11.4399 57.54 8.91992 53.19 7.08992C48.84 5.26992 43.93 4.41992 38.74 4.41992C33.27 4.41992 28.21 5.25992 23.44 7.08992C18.81 8.90992 14.74 11.5799 11.23 14.8099C7.72 18.1799 5.06 22.2499 3.09 26.8799C0.99 31.6499 0 36.9799 0 42.8799C0 48.7799 0.98 54.2499 3.09 59.0199C5.2 63.6499 8 67.7199 11.51 70.9499C15.16 74.1799 19.23 76.5599 24.14 78.2499C28.91 79.9299 33.96 80.7799 39.44 80.7799C46.74 80.7799 53.19 79.5199 58.67 76.8499C64.14 74.1799 68.63 70.3899 72 65.6199L55.58 55.2399C53.9 57.4899 51.79 59.3099 49.26 60.5699C46.73 61.9699 43.51 62.6699 39.72 62.6699C37.62 62.6699 35.51 62.3899 33.55 61.6899C31.59 60.9899 29.76 60.1499 28.22 58.8799C26.68 57.6199 25.41 56.2099 24.29 54.6699C23.31 52.9899 22.75 51.1599 22.47 49.1999H74.39C74.53 48.3599 74.53 47.3799 74.53 46.5299V43.7199C74.67 37.2599 73.83 31.7899 72 27.0199ZM220.06 14.1099C218.66 12.7099 216.97 11.2999 215.01 10.1799C213.05 8.91992 210.94 7.92992 208.55 7.08992C206.16 6.24992 203.78 5.68991 201.25 5.12991C198.72 4.70991 196.2 4.42992 193.53 4.42992C187.92 4.42992 182.72 5.26991 177.81 7.09991C172.9 8.91991 168.69 11.4499 165.04 14.6799C161.39 18.0499 158.58 21.9799 156.48 26.7499C154.37 31.3799 153.39 36.7099 153.39 42.6099C153.39 48.5099 154.37 53.8399 156.48 58.6099C158.58 63.2399 161.39 67.3099 165.04 70.6799C168.69 74.0499 172.9 76.5699 177.81 78.2599C182.72 79.9399 188.05 80.7899 193.67 80.7899C199.29 80.7899 203.91 79.9499 208.69 78.3999C213.32 76.7199 217.25 74.4699 220.2 71.6599L207.15 55.6599C205.75 57.3399 203.78 58.7499 201.54 59.5899C199.15 60.4299 196.77 60.9899 194.38 60.9899C191.85 60.9899 189.47 60.5699 187.36 59.5899C185.26 58.6099 183.57 57.3399 182.03 55.6599C180.49 53.9799 179.36 52.0099 178.66 49.9099C177.96 47.6599 177.54 45.4199 177.54 42.8899C177.54 40.3599 177.96 38.1199 178.8 35.8699C179.64 33.6199 180.76 31.6599 182.17 29.9799C183.57 28.2999 185.4 26.8899 187.36 25.9099C189.32 24.9299 191.57 24.3699 194.1 24.3699C196.49 24.3699 198.87 24.9299 201.12 25.9099C203.37 27.0299 205.19 28.2999 206.59 30.1199L220.06 14.1199V14.1099ZM294.86 26.4599C292.75 21.8299 289.81 17.7599 286.3 14.5299C282.65 11.2999 278.44 8.77992 273.67 7.08992C268.9 5.40992 263.71 4.55992 258.23 4.55992C252.75 4.55992 247.7 5.39992 242.93 7.08992C238.02 8.76992 233.81 11.2999 230.3 14.5299C226.65 17.7599 223.84 21.8299 221.74 26.4599C219.64 31.0899 218.51 36.4199 218.51 42.3199C218.51 48.2199 219.63 53.4099 221.74 58.1799C223.85 62.9499 226.65 67.0199 230.3 70.2499C233.95 73.6199 238.16 76.1399 242.93 77.9699C247.7 79.7899 252.89 80.6399 258.23 80.6399C263.57 80.6399 268.76 79.7999 273.67 77.9699C278.44 76.1499 282.65 73.6199 286.3 70.2499C289.95 66.8799 292.75 62.9499 294.86 58.1799C296.96 53.4099 298.09 48.0799 298.09 42.3199C297.95 36.4299 296.97 31.0899 294.86 26.4599ZM274.23 49.0499C273.53 51.2999 272.4 53.2599 271 55.0799C269.6 56.8999 267.77 58.3099 265.67 59.2899C263.56 60.4099 261.18 60.8299 258.37 60.8299C255.56 60.8299 253.18 60.2699 251.07 59.2899C248.96 58.3099 247.14 56.7599 245.74 55.0799C244.34 53.2599 243.21 51.2899 242.51 49.0499C241.81 46.7999 241.39 44.5599 241.39 42.3099C241.39 40.0599 241.81 37.8199 242.51 35.5699C243.21 33.3199 244.33 31.3599 245.74 29.6799C247.14 27.9999 248.83 26.5899 250.93 25.6099C253.04 24.4899 255.42 24.0699 258.23 24.0699C261.04 24.0699 263.42 24.6299 265.53 25.6099C267.64 26.7299 269.46 27.9999 270.86 29.6799C272.26 31.3599 273.39 33.3299 274.23 35.5699C274.93 37.8199 275.35 40.0599 275.35 42.3099C275.21 44.5599 274.93 46.7999 274.23 49.0499Z" fill="#414142"/>
<path d="M150.03 63.2198L130.1 43.2898L149.89 23.4998C152 21.5398 153.26 18.7298 153.26 15.6398C153.26 9.60983 148.49 4.82983 142.45 4.82983C139.5 4.82983 136.84 6.08983 134.87 8.05983L115.22 27.7098L123.22 35.7098C125.18 37.6698 126.45 40.3398 126.45 43.2898C126.45 46.2398 125.19 49.0398 123.22 50.8698L115.22 58.8698L134.73 78.5198C136.69 80.4798 139.36 81.7498 142.31 81.7498C148.2 81.7498 153.12 76.9798 153.12 70.9398C153.26 67.8498 152 65.1898 150.03 63.2198Z" fill="#FAB816"/>
<path d="M123.23 50.7999C125.19 48.8399 126.46 46.1699 126.46 43.2199C126.46 40.2699 125.2 37.6099 123.23 35.6399L115.23 27.6399L107.23 35.6399C105.27 37.5999 104 40.2699 104 43.2199C104 46.1699 105.26 48.9699 107.23 50.7999L115.23 58.7999L123.23 50.7999Z" fill="#DB6626"/>
<path d="M393.35 80.17L400.72 54.25C401.04 53.14 401.56 52.38 402.31 51.9C403.06 51.42 403.86 51.22 404.78 51.22C405.7 51.22 406.45 51.46 407.21 51.9C407.97 52.34 408.48 53.09 408.8 54.21L416.17 80.17C416.17 80.17 416.21 80.33 416.21 80.45C416.21 80.65 416.17 80.77 416.05 80.89C415.93 81.01 415.77 81.09 415.53 81.09H413.18C412.86 81.09 412.62 80.89 412.5 80.49L409.91 71.33H399.6L397.05 80.49C397.01 80.65 396.93 80.77 396.77 80.89C396.61 81.01 396.49 81.09 396.33 81.09H393.98C393.78 81.09 393.62 81.01 393.5 80.89C393.38 80.77 393.3 80.65 393.3 80.45C393.3 80.33 393.3 80.21 393.34 80.17H393.35ZM409.16 68.19L405.54 55.09C405.42 54.61 405.14 54.37 404.78 54.37C404.38 54.37 404.1 54.61 403.98 55.09L400.36 68.19H409.16Z" fill="#A7AFC1"/>
<path d="M420.03 59.9899C420.03 59.7499 420.07 59.5899 420.23 59.4299C420.39 59.2699 420.55 59.1899 420.79 59.1899H422.78C423.02 59.1899 423.22 59.2699 423.34 59.4299C423.46 59.5899 423.54 59.7499 423.54 59.9899V60.7499C424.7 60.1099 425.73 59.6399 426.69 59.3599C427.64 59.0799 428.72 58.9199 429.87 58.9199C434.49 58.9199 436.8 61.6699 436.8 67.1999V80.2999C436.8 80.5399 436.72 80.6999 436.56 80.8599C436.4 81.0199 436.24 81.0999 436 81.0999H434.09C433.85 81.0999 433.69 81.0199 433.53 80.8599C433.37 80.6999 433.29 80.5399 433.29 80.2999V67.1999C433.29 65.2499 432.93 63.8599 432.26 63.0999C431.59 62.3399 430.47 61.9399 428.92 61.9399C427.37 61.9399 425.62 62.4599 423.54 63.4899V80.2899C423.54 80.4899 423.46 80.6899 423.3 80.8499C423.14 81.0099 422.98 81.0899 422.74 81.0899H420.79C420.59 81.0899 420.43 81.0099 420.27 80.8499C420.11 80.6899 420.03 80.5299 420.03 80.2899V59.9799V59.9899Z" fill="#A7AFC1"/>
<path d="M452.36 52.62C452.36 52.3 452.44 52.02 452.68 51.82C452.92 51.62 453.2 51.5 453.52 51.5H455.71C456.23 51.5 456.59 51.54 456.79 51.66C456.99 51.78 457.19 51.98 457.35 52.3L469.57 75.55L469.65 75.67C469.65 75.67 469.69 75.63 469.69 75.55V52.26C469.69 52.06 469.77 51.9 469.89 51.74C470.01 51.58 470.21 51.5 470.41 51.5H472.52C472.76 51.5 472.92 51.54 473.04 51.7C473.16 51.86 473.24 52.06 473.24 52.26V79.93C473.24 80.25 473.16 80.53 472.92 80.77C472.68 81.01 472.4 81.09 472.08 81.09H469.61C468.97 81.09 468.58 80.89 468.34 80.45L456.04 57.08C456 57 455.96 56.96 455.92 56.96C455.88 56.96 455.88 57 455.88 57.08V80.33C455.88 80.53 455.84 80.69 455.68 80.85C455.52 81.01 455.36 81.09 455.16 81.09H453.09C452.61 81.09 452.37 80.93 452.37 80.61V52.62H452.36Z" fill="#A7AFC1"/>
<path d="M479.39 58.63C479.39 56.04 480.11 54.13 481.5 52.98C482.89 51.82 485 51.23 487.87 51.23C491.37 51.23 493.96 51.31 495.63 51.47C495.75 51.47 495.83 51.55 495.91 51.67C495.99 51.79 496.03 51.91 496.03 52.03V54.02C496.03 54.18 495.99 54.3 495.91 54.38C495.83 54.46 495.71 54.5 495.59 54.5H487.91C486.52 54.5 485.48 54.66 484.76 54.94C484.04 55.22 483.57 55.62 483.33 56.17C483.09 56.73 483.01 57.56 483.01 58.64V64.17H495.23C495.47 64.17 495.63 64.25 495.79 64.41C495.95 64.57 496.03 64.73 496.03 64.97V66.48C496.03 66.72 495.95 66.88 495.79 67.04C495.63 67.2 495.47 67.28 495.23 67.28H483.01V73.97C483.01 75.05 483.09 75.88 483.33 76.44C483.57 77 484.05 77.4 484.76 77.67C485.48 77.95 486.51 78.11 487.91 78.11H495.59C495.71 78.11 495.83 78.15 495.91 78.23C495.99 78.31 496.03 78.43 496.03 78.59V80.62C496.03 80.74 495.99 80.86 495.91 80.98C495.83 81.1 495.75 81.18 495.63 81.18C494.36 81.3 491.77 81.38 487.87 81.38C485 81.38 482.89 80.78 481.5 79.63C480.11 78.48 479.39 76.56 479.39 73.98V58.65V58.63Z" fill="#A7AFC1"/>
<path d="M500.58 63.53C500.58 61.66 500.78 59.99 501.22 58.51C501.66 57.04 502.17 55.84 502.85 54.97C503.53 54.1 504.32 53.38 505.28 52.78C506.24 52.18 507.15 51.78 508.11 51.55C509.06 51.31 510.06 51.23 511.1 51.23C512.81 51.23 515.04 51.43 517.79 51.87C518.19 51.91 518.43 52.11 518.43 52.39V54.42C518.43 54.7 518.27 54.86 517.95 54.86H517.83C514.96 54.62 512.73 54.5 511.14 54.5C510.11 54.5 509.19 54.66 508.39 54.98C507.59 55.3 506.84 55.82 506.2 56.49C505.56 57.17 505.09 58.08 504.73 59.28C504.37 60.47 504.21 61.91 504.21 63.54V69.07C504.21 70.7 504.37 72.1 504.73 73.29C505.09 74.48 505.57 75.44 506.2 76.12C506.84 76.8 507.55 77.31 508.39 77.63C509.23 77.95 510.14 78.11 511.14 78.11C512.97 78.11 515.16 77.99 517.71 77.79H517.87C518.27 77.79 518.51 77.99 518.51 78.43V80.06C518.51 80.5 518.23 80.78 517.71 80.86C515.88 81.18 513.69 81.38 511.1 81.38C510.06 81.38 509.07 81.26 508.11 81.02C507.15 80.78 506.24 80.42 505.28 79.83C504.33 79.23 503.53 78.48 502.85 77.6C502.17 76.72 501.66 75.53 501.22 74.06C500.78 72.59 500.58 70.95 500.58 69.08V63.55V63.53Z" fill="#A7AFC1"/>
<path d="M532.03 63.53C532.03 61.66 532.23 59.99 532.67 58.51C533.11 57.04 533.63 55.84 534.3 54.97C534.98 54.1 535.77 53.38 536.73 52.78C537.68 52.18 538.6 51.78 539.56 51.55C540.52 51.31 541.51 51.23 542.55 51.23C544.26 51.23 546.49 51.43 549.24 51.87C549.64 51.91 549.88 52.11 549.88 52.39V54.42C549.88 54.7 549.72 54.86 549.4 54.86H549.28C546.41 54.62 544.18 54.5 542.59 54.5C541.55 54.5 540.64 54.66 539.84 54.98C539.04 55.3 538.29 55.82 537.65 56.49C537.01 57.16 536.54 58.08 536.18 59.28C535.82 60.47 535.66 61.91 535.66 63.54V69.07C535.66 70.7 535.82 72.1 536.18 73.29C536.54 74.48 537.02 75.44 537.65 76.12C538.28 76.8 539 77.31 539.84 77.63C540.68 77.95 541.59 78.11 542.59 78.11C544.42 78.11 546.61 77.99 549.16 77.79H549.32C549.72 77.79 549.96 77.99 549.96 78.43V80.06C549.96 80.5 549.68 80.78 549.16 80.86C547.33 81.18 545.14 81.38 542.55 81.38C541.52 81.38 540.52 81.26 539.56 81.02C538.61 80.78 537.69 80.42 536.73 79.83C535.77 79.23 534.98 78.48 534.3 77.6C533.62 76.72 533.11 75.53 532.67 74.06C532.23 72.59 532.03 70.95 532.03 69.08V63.55V63.53Z" fill="#A7AFC1"/>
<path d="M553.29 68.6299C553.29 65.6399 554.05 63.2999 555.56 61.5399C557.07 59.7899 559.26 58.9099 562.13 58.9099C565 58.9099 567.23 59.7899 568.74 61.5399C570.25 63.2899 571.01 65.6399 571.01 68.6299V71.6599C571.01 74.6499 570.25 76.9899 568.74 78.7499C567.23 80.4999 565 81.3799 562.13 81.3799C559.26 81.3799 557.07 80.4999 555.56 78.7499C554.05 76.9999 553.29 74.6499 553.29 71.6599V68.6299ZM558.11 76.5499C558.99 77.7099 560.3 78.2999 562.13 78.2999C563.96 78.2999 565.32 77.6999 566.19 76.5499C567.07 75.3999 567.5 73.7599 567.5 71.6499V68.6199C567.5 66.5099 567.06 64.8799 566.19 63.7199C565.31 62.5599 563.96 61.9699 562.13 61.9699C560.3 61.9699 558.99 62.5699 558.11 63.7199C557.23 64.8699 556.8 66.5099 556.8 68.6199V71.6499C556.8 73.7599 557.24 75.3899 558.11 76.5499Z" fill="#A7AFC1"/>
<path d="M575.67 59.9899C575.67 59.7499 575.71 59.5899 575.87 59.4299C576.03 59.2699 576.19 59.1899 576.43 59.1899H578.42C578.66 59.1899 578.86 59.2699 578.98 59.4299C579.1 59.5899 579.18 59.7499 579.18 59.9899V60.7499C581.17 59.5099 583.12 58.8799 584.99 58.8799C586.7 58.8799 588.02 59.4399 588.97 60.5099C591.28 59.4399 593.51 58.8799 595.58 58.8799C596.5 58.8799 597.33 58.9999 598.09 59.2399C598.85 59.4799 599.52 59.8799 600.12 60.4299C600.72 60.9899 601.23 61.7799 601.55 62.7399C601.87 63.6899 602.03 64.8499 602.03 66.1999V80.2899C602.03 80.5299 601.95 80.6899 601.79 80.8499C601.63 81.0099 601.47 81.0899 601.23 81.0899H599.32C599.08 81.0899 598.92 81.0099 598.76 80.8499C598.6 80.6899 598.52 80.5299 598.52 80.2899V66.1999C598.52 64.6499 598.2 63.5299 597.57 62.8999C596.94 62.2699 596.06 61.9399 594.9 61.9399C593.63 61.9399 592.07 62.2999 590.24 63.0199C590.48 63.8999 590.6 64.9299 590.6 66.1299V80.2999C590.6 80.4999 590.52 80.6999 590.4 80.8599C590.28 81.0199 590.08 81.0999 589.88 81.0999H587.77C587.57 81.0999 587.41 81.0199 587.29 80.8599C587.17 80.6999 587.09 80.5399 587.09 80.2999V66.1299C587.09 64.4999 586.85 63.3799 586.37 62.8299C585.89 62.2799 585.14 61.9499 584.02 61.9499C582.9 61.9499 581.23 62.4699 579.16 63.4999V80.2999C579.16 80.4999 579.08 80.6999 578.96 80.8599C578.84 81.0199 578.64 81.0999 578.44 81.0999H576.33C576.13 81.0999 575.97 81.0199 575.85 80.8599C575.73 80.6999 575.65 80.5399 575.65 80.2999V59.9899H575.67Z" fill="#A7AFC1"/>
<path d="M607.4 60.7399C607.4 60.4599 607.44 60.2599 607.56 60.1399C607.68 60.0199 607.88 59.8999 608.24 59.8199C610.71 59.2199 613.14 58.8999 615.57 58.8999C618.48 58.8999 620.67 59.7399 622.1 61.4899C623.53 63.2399 624.25 65.6699 624.25 68.7399V71.6099C624.25 74.7499 623.53 77.1799 622.06 78.8599C620.59 80.5299 618.44 81.3699 615.57 81.3699C614.1 81.3699 612.54 81.2099 610.91 80.9299V88.1399C610.91 88.3399 610.83 88.4999 610.71 88.6599C610.59 88.8199 610.39 88.8999 610.15 88.8999H608.12C607.92 88.8999 607.76 88.8199 607.6 88.6599C607.44 88.4999 607.4 88.3799 607.4 88.1399V60.7499V60.7399ZM615.56 78.4199C617.43 78.4199 618.75 77.8599 619.54 76.7099C620.34 75.5499 620.73 73.8399 620.73 71.6099V68.7399C620.73 66.5099 620.33 64.8399 619.54 63.6399C618.74 62.4499 617.43 61.8499 615.56 61.8499C613.93 61.8499 612.37 61.9699 610.9 62.2499V78.0199C612.45 78.2999 614.01 78.4199 615.56 78.4199Z" fill="#A7AFC1"/>
<path d="M628.11 74.4399C628.11 72.2099 628.83 70.5799 630.3 69.5399C631.77 68.5099 634.24 67.9899 637.71 67.9899H640.66V66.3999C640.66 64.7299 640.34 63.5699 639.71 62.8999C639.07 62.2199 637.96 61.8999 636.41 61.8999C634.46 61.8999 632.43 62.0199 630.32 62.2199H630.12C629.64 62.2199 629.4 62.0199 629.4 61.5799V60.1899C629.4 59.7499 629.68 59.5099 630.24 59.4299C632.35 59.0699 634.42 58.9099 636.41 58.9099C639.12 58.9099 641.07 59.5499 642.3 60.8199C643.53 62.0899 644.17 63.9699 644.17 66.3899V80.2799C644.17 80.5199 644.09 80.6799 643.93 80.8399C643.77 80.9999 643.61 81.0799 643.37 81.0799H641.54C641.3 81.0799 641.14 80.9999 640.98 80.8399C640.82 80.6799 640.74 80.5199 640.74 80.2799V79.3999C638.51 80.7099 636.48 81.3499 634.61 81.3499C633.73 81.3499 632.9 81.2299 632.14 81.0299C631.38 80.8299 630.75 80.4699 630.11 79.9999C629.47 79.5199 629 78.8799 628.64 78.0099C628.28 77.1299 628.12 76.0999 628.12 74.8999V74.4199L628.11 74.4399ZM632.53 77.6999C633.13 78.2199 634.04 78.4999 635.28 78.4999C636.87 78.4999 638.7 77.9799 640.65 76.9099V70.4999H637.7C635.35 70.4999 633.72 70.8199 632.88 71.3799C632.04 71.9399 631.61 72.9699 631.61 74.4099V74.8899C631.61 76.2399 631.93 77.1999 632.53 77.7199V77.6999Z" fill="#A7AFC1"/>
<path d="M649.53 59.9899C649.53 59.7499 649.57 59.5899 649.73 59.4299C649.89 59.2699 650.05 59.1899 650.29 59.1899H652.28C652.52 59.1899 652.72 59.2699 652.84 59.4299C652.96 59.5899 653.04 59.7499 653.04 59.9899V60.7499C654.19 60.1099 655.23 59.6399 656.18 59.3599C657.14 59.0799 658.21 58.9199 659.37 58.9199C663.99 58.9199 666.3 61.6699 666.3 67.1999V80.2999C666.3 80.5399 666.22 80.6999 666.06 80.8599C665.9 81.0199 665.74 81.0999 665.5 81.0999H663.59C663.35 81.0999 663.19 81.0199 663.03 80.8599C662.87 80.6999 662.79 80.5399 662.79 80.2999V67.1999C662.79 65.2499 662.43 63.8599 661.76 63.0999C661.08 62.3399 659.97 61.9399 658.41 61.9399C656.85 61.9399 655.11 62.4599 653.04 63.4899V80.2899C653.04 80.4899 652.96 80.6899 652.8 80.8499C652.64 81.0099 652.48 81.0899 652.24 81.0899H650.29C650.09 81.0899 649.93 81.0099 649.77 80.8499C649.61 80.6899 649.53 80.5299 649.53 80.2899V59.9799V59.9899Z" fill="#A7AFC1"/>
<path d="M671.23 59.1899H673.42C673.58 59.1899 673.74 59.2699 673.86 59.3899C673.98 59.5099 674.06 59.6699 674.1 59.8299L678.8 77.1099C678.88 77.4699 679 77.7099 679.12 77.8299C679.24 77.9499 679.4 77.9899 679.56 77.9899H680.2L685.06 59.7899C685.1 59.6299 685.18 59.5099 685.34 59.3899C685.5 59.2699 685.66 59.1899 685.82 59.1899H688.05C688.25 59.1899 688.41 59.2699 688.53 59.3899C688.65 59.5099 688.69 59.6699 688.69 59.8699C688.69 60.0299 688.69 60.1099 688.65 60.1499L682.08 83.0799C681.64 84.5899 681.16 85.7499 680.65 86.5399C680.13 87.3399 679.42 87.9699 678.5 88.3699C677.58 88.7699 676.31 88.9699 674.8 88.9699C673.65 88.9699 672.53 88.8499 671.46 88.6099C670.9 88.4899 670.62 88.2499 670.62 87.9699V86.4999C670.62 86.0599 670.86 85.8599 671.38 85.8599H671.5C673.25 86.0199 674.45 86.0999 675.04 86.0999C676.23 86.0999 677.11 85.8599 677.67 85.4199C678.23 84.9799 678.67 84.0699 678.98 82.7099L679.38 81.0799H678.82C678.5 81.0799 678.18 81.0399 677.94 80.9999C677.7 80.9599 677.46 80.7999 677.18 80.6399C676.9 80.4799 676.7 80.1999 676.46 79.7999C676.22 79.3999 676.02 78.9199 675.86 78.3299L670.56 60.1299C670.56 60.1299 670.52 60.0099 670.52 59.8499C670.52 59.4099 670.76 59.1699 671.24 59.1699L671.23 59.1899Z" fill="#A7AFC1"/>
</svg>
