<svg xmlns="http://www.w3.org/2000/svg" width="249.177" height="98" viewBox="0 0 249.177 98">
  <g id="Group_77" data-name="Group 77" transform="translate(0 -0.532)">
    <rect id="Rectangle_1052" data-name="Rectangle 1052" width="249.177" height="98" transform="translate(0 0.532)" fill="none"/>
    <g id="Group_88" data-name="Group 88" transform="translate(20.199 20.296)">
      <path id="Path_391" data-name="Path 391" d="M48.344,110.858a5.942,5.942,0,0,0,.8,3.794,6.256,6.256,0,0,0-.8-3.794Z" transform="translate(-40.157 -66.523)" fill="#0a2240" fill-rule="evenodd"/>
      <path id="Path_392" data-name="Path 392" d="M52.127,114.94a8.49,8.49,0,0,0,1.2,3.8,4.872,4.872,0,0,0-1.2-3.8Z" transform="translate(-41.742 -68.21)" fill="#0a2240" fill-rule="evenodd"/>
      <path id="Path_393" data-name="Path 393" d="M56.551,116.983a6.445,6.445,0,0,0,1.4,4,5.43,5.43,0,0,0-1.4-4Z" transform="translate(-43.57 -69.054)" fill="#0a2240" fill-rule="evenodd"/>
      <path id="Path_394" data-name="Path 394" d="M60.977,119.366a6.653,6.653,0,0,0,2.2,3.8,7.132,7.132,0,0,0-2.2-3.8Z" transform="translate(-45.399 -70.039)" fill="#0a2240" fill-rule="evenodd"/>
      <path id="Path_395" data-name="Path 395" d="M65.741,121.413a7.411,7.411,0,0,0,2.6,3.394,5.78,5.78,0,0,0-2.6-3.394Z" transform="translate(-47.368 -70.885)" fill="#0a2240" fill-rule="evenodd"/>
      <path id="Path_396" data-name="Path 396" d="M70.507,122.091a6.622,6.622,0,0,0,3,3.195,7.758,7.758,0,0,0-3-3.195Z" transform="translate(-49.338 -71.165)" fill="#0a2240" fill-rule="evenodd"/>
      <path id="Path_397" data-name="Path 397" d="M74.934,121.75a8.361,8.361,0,0,0,3.6,3.395,6,6,0,0,0-3.6-3.395Z" transform="translate(-51.167 -71.024)" fill="#0a2240" fill-rule="evenodd"/>
      <path id="Path_398" data-name="Path 398" d="M80.035,121.75c.6,1.4,2.6,2.8,4,3.395a6.557,6.557,0,0,0-4-3.395Z" transform="translate(-53.276 -71.024)" fill="#0a2240" fill-rule="evenodd"/>
      <path id="Path_399" data-name="Path 399" d="M85.824,121.413a9.05,9.05,0,0,0,4.194,3.593,8.862,8.862,0,0,0-4.194-3.593Z" transform="translate(-55.668 -70.885)" fill="#0a2240" fill-rule="evenodd"/>
      <path id="Path_400" data-name="Path 400" d="M91.949,121.75a7.939,7.939,0,0,0,3.4,3.395,6.256,6.256,0,0,0-3.4-3.395Z" transform="translate(-58.199 -71.024)" fill="#0a2240" fill-rule="evenodd"/>
      <path id="Path_401" data-name="Path 401" d="M86.506,131.273a8.722,8.722,0,0,0,3.194-3.4,6.5,6.5,0,0,0-3.194,3.4Z" transform="translate(-55.95 -73.556)" fill="#0a2240" fill-rule="evenodd"/>
      <path id="Path_402" data-name="Path 402" d="M80.035,131.073a7.23,7.23,0,0,0,4-3.2,9.227,9.227,0,0,0-4,3.2Z" transform="translate(-53.276 -73.556)" fill="#0a2240" fill-rule="evenodd"/>
      <path id="Path_403" data-name="Path 403" d="M74.253,131.214c.6-1.4,2.6-2.6,4-3a9.215,9.215,0,0,1-4,3Z" transform="translate(-50.886 -73.697)" fill="#0a2240" fill-rule="evenodd"/>
      <path id="Path_404" data-name="Path 404" d="M68.807,130.812a7.2,7.2,0,0,1,3.595-2.595,6.466,6.466,0,0,1-3.595,2.595Z" transform="translate(-48.635 -73.697)" fill="#0a2240" fill-rule="evenodd"/>
      <path id="Path_405" data-name="Path 405" d="M63.7,129.534a7.212,7.212,0,0,1,3.594-2,6.579,6.579,0,0,1-3.594,2Z" transform="translate(-46.525 -73.415)" fill="#0a2240" fill-rule="evenodd"/>
      <path id="Path_406" data-name="Path 406" d="M57.573,127.914a7.432,7.432,0,0,1,3.994-1.4,5.214,5.214,0,0,1-3.994,1.4Z" transform="translate(-43.993 -72.994)" fill="#0a2240" fill-rule="evenodd"/>
      <path id="Path_407" data-name="Path 407" d="M51.446,125.236a8.626,8.626,0,0,1,4.392-.8,5.994,5.994,0,0,1-4.392.8Z" transform="translate(-41.46 -72.113)" fill="#0a2240" fill-rule="evenodd"/>
      <path id="Path_408" data-name="Path 408" d="M47.023,121.555a6.664,6.664,0,0,1,4.392.2c-1.2.4-3.595.4-4.392-.2Z" transform="translate(-39.633 -70.829)" fill="#0a2240" fill-rule="evenodd"/>
      <path id="Path_409" data-name="Path 409" d="M43.278,116.621a7.874,7.874,0,0,0,4.194,1.2,7.117,7.117,0,0,0-4.194-1.2Z" transform="translate(-38.085 -68.888)" fill="#0a2240" fill-rule="evenodd"/>
      <path id="Path_410" data-name="Path 410" d="M104.324,131.715a.913.913,0,0,0,1-.8.944.944,0,0,0-1-1,.916.916,0,0,0-.8,1,.859.859,0,0,0,.8.8Z" transform="translate(-62.982 -74.399)" fill="#0a2240" fill-rule="evenodd"/>
      <path id="Path_411" data-name="Path 411" d="M109.087,123.348c.4,0,.6-.4.6-.8s-.2-.8-.6-.8a.8.8,0,1,0,0,1.6Z" transform="translate(-64.952 -71.024)" fill="#0a2240" fill-rule="evenodd"/>
      <path id="Path_412" data-name="Path 412" d="M81.654,123.27a9.2,9.2,0,0,0-5.592,1.8h-1.2a27.753,27.753,0,0,1,4.994-2.4H65.276c-11.383.2-15.777-5.191-17.572-7.39,1.4,1.6,6.19,7.191,17.572,7.191H97.629c11.587,0,16.177-5.592,17.575-7.191-1.6,2.2-5.988,7.591-17.575,7.39H83.451a29.01,29.01,0,0,1,5.194,2.4h-1.4a8.274,8.274,0,0,0-5.589-1.8Z" transform="translate(-39.914 -68.35)" fill="#0a2240" fill-rule="evenodd"/>
      <path id="Path_413" data-name="Path 413" d="M161.478,110.858a4.912,4.912,0,0,1-.8,3.794,8.1,8.1,0,0,1,.8-3.794Z" transform="translate(-86.587 -66.523)" fill="#0a2240" fill-rule="evenodd"/>
      <path id="Path_414" data-name="Path 414" d="M157.459,114.94c.2,1.2-.6,2.8-1.2,3.8a5.777,5.777,0,0,1,1.2-3.8Z" transform="translate(-84.765 -68.21)" fill="#0a2240" fill-rule="evenodd"/>
      <path id="Path_415" data-name="Path 415" d="M152.9,116.983a5.449,5.449,0,0,1-1.4,4,6.415,6.415,0,0,1,1.4-4Z" transform="translate(-82.8 -69.054)" fill="#0a2240" fill-rule="evenodd"/>
      <path id="Path_416" data-name="Path 416" d="M148.069,119.366c0,1.4-1.2,3-2,3.8a5.872,5.872,0,0,1,2-3.8Z" transform="translate(-80.567 -70.039)" fill="#0a2240" fill-rule="evenodd"/>
      <path id="Path_417" data-name="Path 417" d="M143.079,121.413a7.772,7.772,0,0,1-2.8,3.394,6.069,6.069,0,0,1,2.8-3.394Z" transform="translate(-78.173 -70.885)" fill="#0a2240" fill-rule="evenodd"/>
      <path id="Path_418" data-name="Path 418" d="M138.171,122.091a7.651,7.651,0,0,1-2.994,3.195,5.9,5.9,0,0,1,2.994-3.195Z" transform="translate(-76.064 -71.165)" fill="#0a2240" fill-rule="evenodd"/>
      <path id="Path_419" data-name="Path 419" d="M132.988,121.75a8.355,8.355,0,0,1-3.593,3.395,7.27,7.27,0,0,1,3.593-3.395Z" transform="translate(-73.675 -71.024)" fill="#0a2240" fill-rule="evenodd"/>
      <path id="Path_420" data-name="Path 420" d="M127.8,121.75a9.881,9.881,0,0,1-4.192,3.395,7.458,7.458,0,0,1,4.192-3.395Z" transform="translate(-71.284 -71.024)" fill="#0a2240" fill-rule="evenodd"/>
      <path id="Path_421" data-name="Path 421" d="M121.814,121.413c-.6,1.6-2.6,2.995-3.993,3.593a7.67,7.67,0,0,1,3.993-3.593Z" transform="translate(-68.891 -70.885)" fill="#0a2240" fill-rule="evenodd"/>
      <path id="Path_422" data-name="Path 422" d="M116.108,121.75c-.4,1.4-2.2,2.8-3.4,3.395.6-1.4,2.4-3.195,3.4-3.395Z" transform="translate(-66.78 -71.024)" fill="#0a2240" fill-rule="evenodd"/>
      <path id="Path_423" data-name="Path 423" d="M122.038,131.273a6.579,6.579,0,0,1-3.2-3.4,8.618,8.618,0,0,1,3.2,3.4Z" transform="translate(-69.313 -73.556)" fill="#0a2240" fill-rule="evenodd"/>
      <path id="Path_424" data-name="Path 424" d="M127.6,131.073a8.935,8.935,0,0,1-3.992-3.2,7.352,7.352,0,0,1,3.992,3.2Z" transform="translate(-71.284 -73.556)" fill="#0a2240" fill-rule="evenodd"/>
      <path id="Path_425" data-name="Path 425" d="M133.729,131.214a8.189,8.189,0,0,0-3.993-3,7.4,7.4,0,0,0,3.993,3Z" transform="translate(-73.816 -73.697)" fill="#0a2240" fill-rule="evenodd"/>
      <path id="Path_426" data-name="Path 426" d="M139.115,130.812a5.867,5.867,0,0,0-3.6-2.595,6.461,6.461,0,0,0,3.6,2.595Z" transform="translate(-76.206 -73.697)" fill="#0a2240" fill-rule="evenodd"/>
      <path id="Path_427" data-name="Path 427" d="M144.421,129.534a7.023,7.023,0,0,0-3.793-2,6.442,6.442,0,0,0,3.793,2Z" transform="translate(-78.317 -73.415)" fill="#0a2240" fill-rule="evenodd"/>
      <path id="Path_428" data-name="Path 428" d="M150.065,127.914a6.894,6.894,0,0,0-3.993-1.4,5.76,5.76,0,0,0,3.993,1.4Z" transform="translate(-80.567 -72.994)" fill="#0a2240" fill-rule="evenodd"/>
      <path id="Path_429" data-name="Path 429" d="M156.115,125.236a9.393,9.393,0,0,0-4.6-.8,6.509,6.509,0,0,0,4.6.8Z" transform="translate(-82.818 -72.113)" fill="#0a2240" fill-rule="evenodd"/>
      <path id="Path_430" data-name="Path 430" d="M160.477,121.555a6.035,6.035,0,0,0-4.193.2c1.2.4,3.394.4,4.193-.2Z" transform="translate(-84.787 -70.829)" fill="#0a2240" fill-rule="evenodd"/>
      <path id="Path_431" data-name="Path 431" d="M164.424,116.621a9.157,9.157,0,0,1-4.4,1.2,7.707,7.707,0,0,1,4.4-1.2Z" transform="translate(-86.334 -68.888)" fill="#0a2240" fill-rule="evenodd"/>
      <path id="Path_432" data-name="Path 432" d="M101.062,125.87a.636.636,0,0,0,.6-.6c0-.4-.2-.8-.6-.8s-.6.4-.6.8a.637.637,0,0,0,.6.6Z" transform="translate(-61.717 -72.149)" fill="#0a2240" fill-rule="evenodd"/>
      <path id="Path_433" data-name="Path 433" d="M106.026,125.191a.9.9,0,0,0,.6-.6.892.892,0,0,0-.6-.8.858.858,0,0,0-.8.8.891.891,0,0,0,.8.6Z" transform="translate(-63.687 -71.868)" fill="#0a2240" fill-rule="evenodd"/>
      <path id="Path_434" data-name="Path 434" d="M108.208,131.655a.883.883,0,0,0,.8-.595.856.856,0,0,0-.8-.8.706.706,0,0,0,0,1.4Z" transform="translate(-64.671 -74.54)" fill="#0a2240" fill-rule="evenodd"/>
      <path id="Path_435" data-name="Path 435" d="M100.921,133.22c.4,0,.8-.4.4-1-.2-.4,0-.595-.4-.595a.8.8,0,1,0,0,1.595Z" transform="translate(-61.577 -75.105)" fill="#0a2240" fill-rule="evenodd"/>
      <path id="Path_436" data-name="Path 436" d="M68.138,111.2h.6l1.6,3.993c.2.4.2.4.6.6v.2h-2.2v-.2a.62.62,0,0,0,.4-.2v-.2l-.4-.8h-1.6c0,.2-.2.4-.2.6a.639.639,0,0,0,.6.6v.2h-1.8v-.2a1.641,1.641,0,0,0,1-1l1.4-3.594Zm.6,3-.8-1.6-.6,1.6Z" transform="translate(-47.368 -66.663)" fill="#0a2240" fill-rule="evenodd"/>
      <path id="Path_437" data-name="Path 437" d="M74.934,111.542h2.6v.2c-.2.2-.6,0-.6.2a.193.193,0,0,0-.2.2v2.2a1.808,1.808,0,0,0,.2,1c0,.2.2.2.4.4h.6c.4,0,.8,0,1-.4a1.5,1.5,0,0,0,.2-1v-1.6c0-.4,0-.8-.4-.8,0-.2-.2-.2-.4-.2v-.2h2v.2c-.6,0-.8.4-.8,1v2.4a1.988,1.988,0,0,1-.8,1,2.527,2.527,0,0,1-1.2.2,3.747,3.747,0,0,1-1.4-.4c-.4-.2-.4-.8-.4-1.2v-2.6c0-.2,0-.2-.2-.2a.73.73,0,0,0-.6-.2v-.2Z" transform="translate(-51.167 -66.805)" fill="#0a2240" fill-rule="evenodd"/>
      <path id="Path_438" data-name="Path 438" d="M85.824,114.2h.2c.4.8,1,1.6,1.8,1.6.4,0,1-.2,1-.8,0-.4-.4-.6-.8-.6l-.4-.2a1.892,1.892,0,0,1-1.4-.4,1.524,1.524,0,0,1-.4-1,1.576,1.576,0,0,1,1.6-1.6,2.864,2.864,0,0,1,1.2.4l.4-.4h.2l.2,1.8h-.4a1.694,1.694,0,0,0-1.6-1.4c-.4,0-1,.2-1,.6,0,.6.6.6,1,.8h.4c.8.2,1.8.4,1.8,1.6a1.432,1.432,0,0,1-.6,1.2,2.863,2.863,0,0,1-1.2.4,3.732,3.732,0,0,1-1.4-.4l-.4.4h-.2v-2Z" transform="translate(-55.668 -66.663)" fill="#0a2240" fill-rule="evenodd"/>
      <path id="Path_439" data-name="Path 439" d="M93.653,113.339l.2-1.8h4.2l.2,1.8h-.4c0-.6-.4-1.6-1-1.6-.2,0-.2,0-.2.2v3.594c0,.2,0,.2.2.2.2.2.2.2.4.2v.2h-2.6v-.2c.2,0,.4-.2.6-.2h.2V111.94a.2.2,0,0,0-.2-.2c-.8,0-1.2,1-1.2,1.6Z" transform="translate(-58.903 -66.805)" fill="#0a2240" fill-rule="evenodd"/>
      <path id="Path_440" data-name="Path 440" d="M105.44,111.542h.4a2.547,2.547,0,0,1,1.2.2,1.53,1.53,0,0,1,.4,1c0,.8-.6,1-1.4,1a1.633,1.633,0,0,1,1,1l.2.4v.6h.2c.2.2.2-.4.4-.6h.2v.4a1.1,1.1,0,0,1-1.2.8c-.195,0-.4-.2-.6-.4s-.2-.4-.4-.6v-.4c0-.6,0-1-.6-1h-.6v1.8h.2a.618.618,0,0,0,.4.2h.2v.2h-2.6v-.2h.4c.2-.2.2-.2.2-.4v-3.2s.2-.4,0-.4c0-.2-.2-.2-.4-.2h-.2v-.2Zm-.8,1.994h.6c.6,0,1-.2,1-1,0-.6-.4-.8-1-.8a.616.616,0,0,0-.4.2.194.194,0,0,0-.2.2v1.4Z" transform="translate(-62.702 -66.805)" fill="#0a2240" fill-rule="evenodd"/>
      <path id="Path_441" data-name="Path 441" d="M114.774,111.2h.6l1.594,3.993c.2.4.2.4.8.6v.2h-2.4v-.2c.2,0,.4,0,.4-.2.2,0,.2-.2,0-.2l-.2-.8h-1.6a.738.738,0,0,0-.2.6.529.529,0,0,0,.6.6v.2h-1.993v-.2a1.656,1.656,0,0,0,1-1l1.4-3.594Zm.6,3-.6-1.6-.8,1.6Z" transform="translate(-66.642 -66.663)" fill="#0a2240" fill-rule="evenodd"/>
      <path id="Path_442" data-name="Path 442" d="M122.245,116.133v-.2c.2,0,.4-.2.6-.2a.2.2,0,0,0,.2-.2v-3.2c0-.4,0-.6-.6-.6h-.2v-.2h2.6v.2h-.4c-.2,0-.2.2-.2.4v3.2c0,.4,0,.4.2.4a.623.623,0,0,0,.4.2c1,0,1.4-.6,1.6-1.6h.4l-.2,1.795Z" transform="translate(-70.72 -66.805)" fill="#0a2240" fill-rule="evenodd"/>
      <path id="Path_443" data-name="Path 443" d="M131.439,116.133v-.2h.4c.4-.2.4-.2.4-.6V111.94h-.2c0-.2-.2-.2-.4-.2h-.2v-.2h2.594v.2h-.2c-.2,0-.4,0-.4.2h0v3.795h.2a.2.2,0,0,0,.2.2h.2v.2Z" transform="translate(-74.519 -66.805)" fill="#0a2240" fill-rule="evenodd"/>
      <path id="Path_444" data-name="Path 444" d="M139.28,111.2h.6l1.6,3.993c.2.4.2.4.6.6v.2h-2.2v-.2c.2,0,.4,0,.4-.2.2,0,0-.2,0-.2l-.2-.8h-1.795c0,.2-.2.4-.2.6,0,.4.4.6.793.6v.2h-1.993v-.2a1.647,1.647,0,0,0,1-1l1.4-3.594Zm.6,3-.6-1.6-.8,1.6Z" transform="translate(-76.769 -66.663)" fill="#0a2240" fill-rule="evenodd"/>
      <path id="Path_445" data-name="Path 445" d="M48.007,80.691c2-1.2,2.2-6.991,4.792-6.991,1,0,0,5.194,0,6.991Zm49.925,0c.2-1.6,2.2-7.792,3.4-9.189,0-1-.2-3,.2-3s2,2,2,3.2c.2.8,1.2,7.989-.6,7.989s-2.594-.8-4.393,1ZM87.35,54.329s1.2,10.983,1.2,13.579c0,7.988-5.992,12.181-12.384,12.181-6.192,0-12.182-4.193-12.182-12.181,0-2.6,1-13.579,1-13.579h4.992c0,.6,1,.8,1.4,0ZM63.384,67.509v.6c0,7.989,6.393,12.582,12.783,12.582,6.592,0,12.782-4.593,12.782-12.582,0-2.8-1.2-14.179-1.2-14.179H71.374c0-.8-.2-1-2-.8a5.655,5.655,0,0,0-2.394.8h-2.4v1.6c-.4.2-.6.4-.8.4-.8,0-.6-3.993-.6-4.392s2.2-.2,3-.2c1,0,1.2-1,.6-1.6s-.8-.6-1.2-1.2-1.995-1-1.995-1.6c0-.4,1.2-1.8.2-2.6-.8,0-1.2,1.6-1.6,1.6s-.8-1.4-1.6-1.8a1.814,1.814,0,0,0-.6,1.4c0,1.2.6,1.2.6,2.4s-.6.8-.6,2.793c0,1.8-2.2,2.2-2.6,3.8-.4.8-3,3-4.794,4a10.387,10.387,0,0,0-5.792,9.386V74.3c0,7.79-12.383,3.992-12.383,6.591,0,.6.2.6.4.6H99.133c.2.2.2.2.4.4a10.115,10.115,0,0,0,1.8-.4h12.382c1.4,0,1.794-2,1.6-2s-.2,1-1.6,1h-7.588c-.6,0-.6-.6-.6-3.795,0-2,.4-4.393.4-5.79,0-.4-1.2-2-1.2-3,0-.8,2.593-.4,3.194-1.2a5.075,5.075,0,0,0,3.191.8c.6.6,1.2.6,1.4.4.6,0,1,.6,1-.4,0-6.391-7.39-11.783-11.385-11.783-4.991,0-9.787,4.593-9.787-1,0-2.2,1.6-5.594,1.6-7.391a2.32,2.32,0,0,0-2.594-2.4c-.8,0-.6.8-2.4,1.6-1.6.6-.8.8-.2.8,2.4,0,2.2,1.2,2.2,1.6,0,3.394-2.6,2.2-2.6,8.39,0,6.79,7.592,10.184,8.389,10.184.6,0,1.194-.8,1.194.2,0,.8,1.4,1.2,1.4,3.794s-3,6.99-3.593,8.191c-1.6,0-3.4-.2-4,1H64.583c0-1.2-4.591-.8-6.591-.8-1.2,0-2.2,0-2.2-1.6,0-4.791,1.2-7.187,1.2-9.583,0-2.595.8-3,1.6-3.795.4-.4,1.4-1.8,1.8-1.8.2,0,.2.2.6.6.2.2,1.4,1.4,1.4,1.8,0,1-.6,0-.6,1.2,0,.6.4.8,1.2.8Zm.2-2.8c-.6-1.4-2-2.394-2-3.194a8.962,8.962,0,0,1,1.2-2.4,3.192,3.192,0,0,1,1.4-.8c-.2,2-.4,4.393-.6,6.389Z" transform="translate(-34.427 -38.951)" fill="#0a2240" fill-rule="evenodd"/>
      <path id="Path_446" data-name="Path 446" d="M107.837,64.9s1,9.387,1,11.584c0,6.591-5.195,10.382-10.586,10.382A10.174,10.174,0,0,1,87.867,76.488c0-2.2,1-11.584,1-11.584ZM94.858,75.69V65.3H89.067s-.8,7.39-.8,10.386Zm.4,0h6.191V65.3H95.256V75.69Zm0,.4v9.987a12.247,12.247,0,0,0,6.191,0V76.089Zm6.391,9.786c3.795-1.2,6.789-4.193,6.789-9.786h-6.789v9.786Zm6.789-10.186c-.2-3-1-10.386-1-10.386h-5.793V75.69Zm-13.578.4H88.066a9.979,9.979,0,0,0,6.792,9.786V76.089Z" transform="translate(-56.512 -47.531)" fill="#0a2240" fill-rule="evenodd"/>
      <path id="Path_447" data-name="Path 447" d="M99.655,45.879v-3l-2.6-.4,2-2.2-1.2-2.4,2.6.4,1.6-2.994,1.6,2.8,2.8-.2-1.2,2.4,2,2.2-2.6.4v3l-2.593-2-2.4,2Zm3.793-7.59-1.4-2.4v4.992l-1.4-2.4-2.4-.2,3.8,2.6-2.8-.6-1.8,2,4.593-1.4-2.2,1.8v2.6l2.2-4.394,2.4,4.394-.195-2.6-2.2-1.8,4.592,1.4-1.8-2-2.793.6,4-2.6-2.2.2-1.8,2.4,1.4-2.6Z" transform="translate(-60.31 -35.294)" fill="#0a2240" fill-rule="evenodd"/>
      <path id="Path_448" data-name="Path 448" d="M106.583,54.352a.642.642,0,0,1,.6.6.894.894,0,0,1-.6.8H98c-.4,0-.6-.4-.6-.8a.531.531,0,0,1,.6-.6Zm-5.989,1.2c.8,0,0-1-.4-1h-1c-.8,0,0,1,.4,1Zm3.394,0c.8,0,0-1-.4-1h-.8c-.8,0,0,1,.4,1Zm2.6-1h-.4c-.8,0-.2,1,.4,1,.4,0,.6-1,0-1Z" transform="translate(-60.451 -43.17)" fill="#0a2240" fill-rule="evenodd"/>
      <path id="Path_449" data-name="Path 449" d="M112.833,66.61l2,.8,1.993-.8-.8,2.995,1.6-.4-.6,1.8.6,1.8-1.4-.4.595,3.2-1.993-.8-2,.8.8-3.2-1.6.4.6-1.8-.6-1.6,1.6.2-.8-2.995Zm3,5.391c.4,0,.6-.6.6-1.2,0-1.2-1,0-1.594-1.2-.4,1-1.2.2-1.2,1.2,0,.6-.2,1.2.6,1.2Zm-2-1.2c0,.6.6.2,1.2.2.4,0,1,.4,1-.2s-.6-.4-1-.4c-.6,0-1.2-.2-1.2.4Z" transform="translate(-66.501 -48.236)" fill="#0a2240" fill-rule="evenodd"/>
      <path id="Path_450" data-name="Path 450" d="M105.625,73.254v-.4h-.4l.2-.2v-.4h.2l.2-.2.2.2h.4l-.2.4.4.2h-.4v.4l-.4-.2-.2.2Z" transform="translate(-63.687 -50.487)" fill="#0a2240" fill-rule="evenodd"/>
      <path id="Path_451" data-name="Path 451" d="M103.043,76.516v-.4h-.2l.2-.4-.2-.2h.4l.2-.4.2.4h.2v.2l.2.4h-.4v.4l-.2-.2-.4.2Z" transform="translate(-62.702 -51.753)" fill="#0a2240" fill-rule="evenodd"/>
      <path id="Path_452" data-name="Path 452" d="M107.468,76.175v-.4l-.2-.2.2-.2-.2-.2h.4l.2-.4.2.4h.2v.2l.2.2-.4.2v.4l-.2-.4-.4.4Z" transform="translate(-64.53 -51.611)" fill="#0a2240" fill-rule="evenodd"/>
      <path id="Path_453" data-name="Path 453" d="M108.149,78.98v-.2h-.2v-.4h.2l.2-.2v.2h.2v.4h-.2v0l-.2.2Z" transform="translate(-64.812 -53.018)" fill="#0a2240" fill-rule="evenodd"/>
      <path id="Path_454" data-name="Path 454" d="M103.783,80.72v-.6h-.6l.4-.6-.2-.4h.6l.2-.6.4.6h.6l-.2.4.4.6h-.6v.6l-.6-.4-.4.4Z" transform="translate(-62.842 -53.159)" fill="#0a2240" fill-rule="evenodd"/>
      <path id="Path_455" data-name="Path 455" d="M105.72,68.464c.4,0,.6-.6.6-1.2,0-1.2-1,0-1.6-1-.2.8-1.2,0-1.2,1,0,.8,0,1.2.6,1.2Zm-.8-1.4c.4,0,1-.4,1,.4,0,.4-.6.2-1,.2-.6,0-1.2.2-1.2-.2,0-.8.6-.4,1.2-.4Z" transform="translate(-62.982 -48.094)" fill="#0a2240" fill-rule="evenodd"/>
      <path id="Path_456" data-name="Path 456" d="M106.276,91.848c0-.8-.8-2.6-.8-3.2,0-.8.4,0,.6,0,0-.4,0-1.6-.6-1.6-1.994,0,1,4.394-.2,4.394-.6,0-.4-2.8-1.4-3.792-.8-1-2.2-1-2.2-1.8,0-.4-.2-.2-.2.2,0,.8,2.2,1.6,2.2,2.2,0,.4-.4.4-.6.8s-.2,2.394-.8,2.394-.2-.4-.6-.4c-.2,0,.6,1,.8,1.4h3.4c.2,0,.4-.2.4-.6Z" transform="translate(-62.14 -56.1)" fill="#0a2240" fill-rule="evenodd"/>
      <path id="Path_457" data-name="Path 457" d="M101.761,87.91a5.357,5.357,0,0,0,1.4,1.6c.4,0,.2,0,.2-.2a6.08,6.08,0,0,0-1.6-1.6c-.2,0,0,0,0,.2Z" transform="translate(-62.218 -56.956)" fill="#0a2240" fill-rule="evenodd"/>
      <path id="Path_458" data-name="Path 458" d="M101.823,89.954a2.935,2.935,0,0,0,1,1.2c.2,0,.2,0,.2-.2a3.451,3.451,0,0,0-1.2-1.2v.2Z" transform="translate(-62.28 -57.802)" fill="#0a2240" fill-rule="evenodd"/>
      <path id="Path_459" data-name="Path 459" d="M102.1,92.334c0,.4.2,1,.4,1s.2,0,.2-.2-.4-1-.6-1,0,0,0,.2Z" transform="translate(-62.358 -58.786)" fill="#0a2240" fill-rule="evenodd"/>
      <path id="Path_460" data-name="Path 460" d="M106.46,98.324l.2-.4h-2.8l.2.4Z" transform="translate(-63.123 -61.177)" fill="#0a2240" fill-rule="evenodd"/>
      <path id="Path_461" data-name="Path 461" d="M106.344,99.345l.2-.4h-2l.2.4Z" transform="translate(-63.406 -61.6)" fill="#0a2240" fill-rule="evenodd"/>
      <path id="Path_462" data-name="Path 462" d="M111.7,92.1c0-.4,1.4-.2,1.4-2.194,0-1-.6.4-.6-2-.8,0,0-1.2,0-2,0-.6-.6-.4-.6-1,0-.4.2-.4.4-.4s.8.4.8.6c0,.4-.2.2-.2,1.4,0,.6.2.6.4.6s.2-.2.2-.4-.2-.4-.2-.6a1.3,1.3,0,0,1,1.2-1,1.477,1.477,0,0,1,1.4,1.4c0,.2-.2.4-.2.8a.429.429,0,0,0,.4.4c.4,0,.595-.6.595-1a11.467,11.467,0,0,1-.2-1.4.913.913,0,0,1,.8-1c.4,0,1,0,1,.6,0,.4-.2.4-.4.4s0-.6-.6-.6-.6.4-.6.6c0,.8.6,1,.6,1.8,0,.6-.6.6-.6,1,0,.6.6,0,.6.6,0,.2-.2.4-.2.6s-.2.6-.4.6.2-.4.2-.8c0-.2-.4-.2-.6-.2s-1,1-1.2,1,.4-.4.4-.8c0-.595-1.2.2-1.2.6s-.6,1-1,1.4c-.2.2-.6,1.2-1,1.2s-.595.2-.595-.2Z" transform="translate(-66.361 -55.55)" fill="#0a2240" fill-rule="evenodd"/>
      <path id="Path_463" data-name="Path 463" d="M93.785,87.445c.4,0,.4-.8.4-1.4s1-.6,1.4-1.4c.2.2,0,.8-.6,1.2.8-.4,1-.4,0,.8.4-.2,1.4-.6.6.4.4-.2.4,0,.4.6,0,.4-.6,1.795-1.6,1.795-.4,0-.6,0-.6.2,0,.4.6.2.6.4s-.6,0-.6.4.8,1,.8,1.6c0,.2-.8-.2-1-.2s-.2.4-.4.4-1-.6-1-.8.4-.4.4-1-.8,0-.8-.4.8-.2.8-.6-.4-.2-.4-.4a.391.391,0,0,1-.4.4c-.6,0-1.2-.4-1.2-1.795,0-.8.2-.4.2-.6,0-.4-.2-.4-.2-.6s.4,0,.4-.2-.4-.4-.4-.6.4.2.6.2c0-.6-.6-.6-.6-1.2a2.282,2.282,0,0,1,1.4,1.6c0,.4-.2,0-.2.4,0,.2.4.8.8.8.2,0,.2-.2.2-.4s-.4-.4-.6-.4a1.511,1.511,0,0,1,.8-.4c.8,0,.2,1.2.8,1.2Z" transform="translate(-57.637 -55.691)" fill="#0a2240" fill-rule="evenodd"/>
      <path id="Path_464" data-name="Path 464" d="M101.179,103.686l-1.4-1,1.6.2c-.4.2-.4.4-.2.8Z" transform="translate(-61.436 -63.145)" fill="#0a2240" fill-rule="evenodd"/>
      <path id="Path_465" data-name="Path 465" d="M90.709,97.963l-.8-1.4,1.4.8a.64.64,0,0,0-.6.6Z" transform="translate(-57.357 -60.615)" fill="#0a2240" fill-rule="evenodd"/>
      <path id="Path_466" data-name="Path 466" d="M85.824,87.608l.4-1.6.4,1.4a1.2,1.2,0,0,0-.8.2Z" transform="translate(-55.668 -56.254)" fill="#0a2240" fill-rule="evenodd"/>
      <path id="Path_467" data-name="Path 467" d="M86.165,74.673l.6-1.6.4,1.6c-.4-.4-.6-.2-1,0Z" transform="translate(-55.809 -50.908)" fill="#0a2240" fill-rule="evenodd"/>
      <path id="Path_468" data-name="Path 468" d="M87.524,63.441l.4-1.6.4,1.4a.5.5,0,0,0-.8.2Z" transform="translate(-56.371 -46.266)" fill="#0a2240" fill-rule="evenodd"/>
      <path id="Path_469" data-name="Path 469" d="M98.756,63.441l.6-1.6.2,1.4c-.2-.2-.4-.2-.8.2Z" transform="translate(-61.012 -46.266)" fill="#0a2240" fill-rule="evenodd"/>
      <path id="Path_470" data-name="Path 470" d="M109.175,103.686l1.4-1-1.6.2c.2.2.4.4.2.8Z" transform="translate(-65.234 -63.145)" fill="#0a2240" fill-rule="evenodd"/>
      <path id="Path_471" data-name="Path 471" d="M119.584,97.963l1-1.4-1.4.8c.2,0,.4.4.4.6Z" transform="translate(-69.456 -60.615)" fill="#0a2240" fill-rule="evenodd"/>
      <path id="Path_472" data-name="Path 472" d="M124.746,87.608l-.2-1.6-.6,1.4c.4,0,.6,0,.8.2Z" transform="translate(-71.425 -56.254)" fill="#0a2240" fill-rule="evenodd"/>
      <path id="Path_473" data-name="Path 473" d="M124.407,74.673l-.4-1.6-.4,1.6c.2-.4.6-.2.8,0Z" transform="translate(-71.284 -50.908)" fill="#0a2240" fill-rule="evenodd"/>
      <path id="Path_474" data-name="Path 474" d="M123.387,63.441l-.4-1.6-.4,1.4a.5.5,0,0,1,.8.2Z" transform="translate(-70.861 -46.266)" fill="#0a2240" fill-rule="evenodd"/>
      <path id="Path_475" data-name="Path 475" d="M111.813,63.441l-.4-1.6-.4,1.4a.5.5,0,0,1,.8.2Z" transform="translate(-66.077 -46.266)" fill="#0a2240" fill-rule="evenodd"/>
      <path id="Path_476" data-name="Path 476" d="M93.481,69.58V65.586h-2.4V69.58h-2l-.2,2.8h2.2v3.595h2.4V72.377h1.8v-2.8Zm-1.8-3.394.4.2.2-.4.2.2h.4l-.2.4.2.2-.2.2v.2l-.4-.2-.2.2v-.2l-.4-.2.2-.2-.2-.4Zm-1.6,4.792v.4l-.2-.2-.4.2v-.4h-.4l.4-.2-.2-.4.4.2.2-.4.2.4.2-.2v.4l.2.2Zm2.6,4.195v.4l-.4-.2-.2.2v-.4h-.4l.2-.2-.2-.4h.4l.2-.2.2.2h.4l-.2.4.2.2Zm.6-3.6c-.2,0,0-.2,0-.2a.2.2,0,0,0-.2-.2c-.2,0-.4.4-.6.4a.194.194,0,0,1-.2-.2l.4-.2c-1.4,0-1.4.6-1.6.6-.4,0,.4-.8.6-1a1.035,1.035,0,0,1-.8-.4c.2-.2.2-.2.4,0,0-.2,0-.4.4-.4.6,0,.4.6.6.6,0,0,0-.6.4-.6.6,0,1.4,1.6.6,1.6Zm1.6-.6v.4l-.2-.2-.4.2v-.4h-.2l.2-.2-.2-.4.4.2.2-.4.2.4.2-.2v.4l.2.2Z" transform="translate(-56.934 -47.813)" fill="#0a2240" fill-rule="evenodd"/>
    </g>
    <g id="Group_91" data-name="Group 91" transform="translate(126.401 33.375)">
      <g id="Group_89" data-name="Group 89" transform="translate(0 18.443)">
        <path id="Path_477" data-name="Path 477" d="M226.306,93.336a4.036,4.036,0,0,0-4.082-3.225c-3.523,0-5.014,2.946-5.014,5.853s1.491,5.854,5.014,5.854c2.461,0,4.027-1.9,4.269-4.269h1.268c-.354,3.262-2.424,5.351-5.537,5.351-4.195,0-6.282-3.3-6.282-6.936s2.088-6.935,6.282-6.935a5.1,5.1,0,0,1,5.35,4.307Z" transform="translate(-215.941 -89.029)" fill="#0a2240"/>
        <path id="Path_478" data-name="Path 478" d="M248.068,100.409c0,2.758-1.6,5.09-4.549,5.09s-4.548-2.332-4.548-5.09,1.6-5.089,4.548-5.089S248.068,97.65,248.068,100.409Zm-7.923,0c0,2.05,1.118,4.1,3.374,4.1s3.374-2.051,3.374-4.1-1.118-4.1-3.374-4.1S240.146,98.359,240.146,100.409Z" transform="translate(-225.459 -91.629)" fill="#0a2240"/>
        <path id="Path_479" data-name="Path 479" d="M258.253,95.6h1.081v1.622h.056a3.358,3.358,0,0,1,3.151-1.9A2.674,2.674,0,0,1,265.3,97.2a3.252,3.252,0,0,1,3.057-1.883c2.107,0,3.188,1.1,3.188,3.374v6.525H270.37V98.75c0-1.585-.6-2.443-2.274-2.443-2.032,0-2.61,1.678-2.61,3.468v5.444h-1.175V98.694c.019-1.3-.522-2.386-2.014-2.386-2.031,0-2.852,1.529-2.87,3.542v5.369h-1.175Z" transform="translate(-233.427 -91.629)" fill="#0a2240"/>
        <path id="Path_480" data-name="Path 480" d="M285.507,95.6h1.081v1.622h.056a3.359,3.359,0,0,1,3.151-1.9,2.673,2.673,0,0,1,2.759,1.883,3.252,3.252,0,0,1,3.057-1.883c2.107,0,3.188,1.1,3.188,3.374v6.525h-1.175V98.75c0-1.585-.6-2.443-2.274-2.443-2.032,0-2.61,1.678-2.61,3.468v5.444h-1.175V98.694c.019-1.3-.522-2.386-2.013-2.386-2.032,0-2.852,1.529-2.871,3.542v5.369h-1.175Z" transform="translate(-244.691 -91.629)" fill="#0a2240"/>
        <path id="Path_481" data-name="Path 481" d="M312.793,89.5h1.174v1.883h-1.174Zm0,3.691h1.174v9.619h-1.174Z" transform="translate(-255.967 -89.226)" fill="#0a2240"/>
        <path id="Path_482" data-name="Path 482" d="M324.811,98.414a2.214,2.214,0,0,0-2.516-2.107c-1.044,0-2.274.411-2.274,1.66,0,1.043,1.192,1.416,1.995,1.622l1.565.354c1.342.2,2.741.987,2.741,2.666,0,2.088-2.069,2.89-3.859,2.89-2.237,0-3.765-1.045-3.953-3.394h1.175a2.535,2.535,0,0,0,2.833,2.4c1.1,0,2.629-.485,2.629-1.827,0-1.118-1.044-1.491-2.106-1.753l-1.51-.334c-1.528-.411-2.684-.932-2.684-2.573,0-1.958,1.92-2.7,3.617-2.7,1.92,0,3.449,1.007,3.523,3.094Z" transform="translate(-258.33 -91.629)" fill="#0a2240"/>
        <path id="Path_483" data-name="Path 483" d="M340.884,98.414a2.213,2.213,0,0,0-2.515-2.107c-1.045,0-2.275.411-2.275,1.66,0,1.043,1.194,1.416,1.995,1.622l1.566.354c1.342.2,2.741.987,2.741,2.666,0,2.088-2.07,2.89-3.859,2.89-2.237,0-3.766-1.045-3.952-3.394h1.175a2.535,2.535,0,0,0,2.833,2.4c1.1,0,2.629-.485,2.629-1.827,0-1.118-1.045-1.491-2.108-1.753L337.6,100.6c-1.529-.411-2.685-.932-2.685-2.573,0-1.958,1.92-2.7,3.617-2.7,1.92,0,3.449,1.007,3.524,3.094Z" transform="translate(-264.973 -91.629)" fill="#0a2240"/>
        <path id="Path_484" data-name="Path 484" d="M351.61,89.5h1.174v1.883H351.61Zm0,3.691h1.174v9.619H351.61Z" transform="translate(-272.009 -89.226)" fill="#0a2240"/>
        <path id="Path_485" data-name="Path 485" d="M366.52,100.409c0,2.758-1.6,5.09-4.548,5.09s-4.548-2.332-4.548-5.09,1.6-5.089,4.548-5.089S366.52,97.65,366.52,100.409Zm-7.923,0c0,2.05,1.119,4.1,3.374,4.1s3.374-2.051,3.374-4.1-1.118-4.1-3.374-4.1S358.6,98.359,358.6,100.409Z" transform="translate(-274.412 -91.629)" fill="#0a2240"/>
        <path id="Path_486" data-name="Path 486" d="M376.673,95.6h1.175v1.659h.036a3.262,3.262,0,0,1,3.076-1.939c2.7,0,3.524,1.417,3.524,3.709v6.189H383.31v-6c0-1.659-.54-2.908-2.443-2.908-1.864,0-2.983,1.418-3.019,3.3v5.611h-1.175Z" transform="translate(-282.367 -91.629)" fill="#0a2240"/>
      </g>
      <g id="Group_90" data-name="Group 90" transform="translate(0.926)">
        <path id="Path_487" data-name="Path 487" d="M225.855,57.6v1.067h-7.084V63.41h6.292v1.067h-6.292v6.256H217.52V57.6Z" transform="translate(-217.52 -57.596)" fill="#0a2240"/>
        <path id="Path_488" data-name="Path 488" d="M234.183,65.083a2.716,2.716,0,0,1,.8-.993,3.387,3.387,0,0,1,1.187-.57,5.779,5.779,0,0,1,1.509-.184,6.646,6.646,0,0,1,1.251.12,3.025,3.025,0,0,1,1.122.451,2.458,2.458,0,0,1,.81.929,3.355,3.355,0,0,1,.313,1.555v5.041a.61.61,0,0,0,.681.7.9.9,0,0,0,.368-.074v.976q-.2.037-.359.055a3.492,3.492,0,0,1-.4.018,1.754,1.754,0,0,1-.709-.12.949.949,0,0,1-.414-.34,1.279,1.279,0,0,1-.194-.525,4.522,4.522,0,0,1-.046-.672h-.037a7.589,7.589,0,0,1-.635.819,3.131,3.131,0,0,1-.717.6,3.3,3.3,0,0,1-.9.368,4.946,4.946,0,0,1-1.205.129,4.77,4.77,0,0,1-1.242-.156,2.788,2.788,0,0,1-1.012-.5,2.376,2.376,0,0,1-.681-.865,2.88,2.88,0,0,1-.249-1.242,2.454,2.454,0,0,1,.442-1.555,2.782,2.782,0,0,1,1.169-.855,6.674,6.674,0,0,1,1.638-.414q.91-.119,1.849-.23.368-.036.644-.092a1.12,1.12,0,0,0,.46-.193.9.9,0,0,0,.285-.377,1.636,1.636,0,0,0,.1-.625,2.109,2.109,0,0,0-.193-.966,1.527,1.527,0,0,0-.533-.6,2.157,2.157,0,0,0-.792-.3,5.349,5.349,0,0,0-.966-.083,2.926,2.926,0,0,0-1.8.525,2.055,2.055,0,0,0-.736,1.683h-1.159A3.866,3.866,0,0,1,234.183,65.083Zm5.8,2.834a.664.664,0,0,1-.424.294,4.3,4.3,0,0,1-.552.129q-.737.128-1.518.23a8.32,8.32,0,0,0-1.426.3,2.794,2.794,0,0,0-1.058.58,1.384,1.384,0,0,0-.414,1.077,1.683,1.683,0,0,0,.175.782,1.887,1.887,0,0,0,.469.589,2.044,2.044,0,0,0,.681.377,2.49,2.49,0,0,0,.791.129,3.97,3.97,0,0,0,1.269-.2,3.119,3.119,0,0,0,1.058-.588,2.8,2.8,0,0,0,.984-2.19V67.917Z" transform="translate(-224.094 -59.968)" fill="#0a2240"/>
        <path id="Path_489" data-name="Path 489" d="M252.823,57.6v1.858h-1.159V57.6Zm0,3.643v9.494h-1.159V61.239Z" transform="translate(-231.631 -57.596)" fill="#0a2240"/>
        <path id="Path_490" data-name="Path 490" d="M259.439,63.711v2.227h.036a3.646,3.646,0,0,1,1.371-1.785,3.585,3.585,0,0,1,2.217-.57v1.159a3.506,3.506,0,0,0-1.435.212,3.176,3.176,0,0,0-1.841,1.8,3.66,3.66,0,0,0-.257,1.389v5.06h-1.159V63.711Z" transform="translate(-234.403 -60.068)" fill="#0a2240"/>
        <path id="Path_491" data-name="Path 491" d="M274.4,57.6l2.981,11.5h.037l3.2-11.5h1.564l3.22,11.5h.037l3-11.5h1.251L286.07,70.733h-1.325l-3.33-11.757h-.037l-3.312,11.757H276.7L273.061,57.6Z" transform="translate(-240.474 -57.596)" fill="#0a2240"/>
        <path id="Path_492" data-name="Path 492" d="M308.92,63.74a4.193,4.193,0,0,1,1.408,1.085,4.707,4.707,0,0,1,.865,1.592,6.544,6.544,0,0,1,0,3.882,4.7,4.7,0,0,1-.865,1.591,4.082,4.082,0,0,1-1.408,1.077,4.872,4.872,0,0,1-3.845,0,4.077,4.077,0,0,1-1.408-1.077A4.694,4.694,0,0,1,302.8,70.3a6.544,6.544,0,0,1,0-3.882,4.7,4.7,0,0,1,.865-1.592,4.187,4.187,0,0,1,1.408-1.085,4.768,4.768,0,0,1,3.845,0Zm-3.376.92a3.187,3.187,0,0,0-1.04.92,4.185,4.185,0,0,0-.626,1.3,5.3,5.3,0,0,0,0,2.962,4.175,4.175,0,0,0,.626,1.3,3.173,3.173,0,0,0,1.04.92,3.2,3.2,0,0,0,2.907,0,3.177,3.177,0,0,0,1.039-.92,4.163,4.163,0,0,0,.626-1.3,5.3,5.3,0,0,0,0-2.962,4.173,4.173,0,0,0-.626-1.3,3.191,3.191,0,0,0-1.039-.92,3.2,3.2,0,0,0-2.907,0Z" transform="translate(-252.643 -59.968)" fill="#0a2240"/>
        <path id="Path_493" data-name="Path 493" d="M322.833,63.711v2.227h.037a3.645,3.645,0,0,1,1.371-1.785,3.588,3.588,0,0,1,2.217-.57v1.159a3.51,3.51,0,0,0-1.435.212,3.178,3.178,0,0,0-1.84,1.8,3.661,3.661,0,0,0-.258,1.389v5.06h-1.159V63.711Z" transform="translate(-260.602 -60.068)" fill="#0a2240"/>
        <path id="Path_494" data-name="Path 494" d="M333.97,57.6v8.243l5.262-4.6h1.545l-4.048,3.514,4.324,5.98H339.6l-3.754-5.17-1.876,1.564v3.607h-1.159V57.6Z" transform="translate(-265.167 -57.596)" fill="#0a2240"/>
      </g>
    </g>
    <g id="Group_92" data-name="Group 92" transform="translate(113.317 20.475)">
      <rect id="Rectangle_1053" data-name="Rectangle 1053" width="1.075" height="58.115" fill="#0a2240"/>
    </g>
  </g>
</svg>
