<?xml version="1.0" encoding="UTF-8"?>
<svg width="1806px" height="144px" viewBox="0 0 1806 144" version="1.1" xmlns="http://www.w3.org/2000/svg" xmlns:xlink="http://www.w3.org/1999/xlink">
    <title>Group</title>
    <g id="Page-1" stroke="none" stroke-width="1" fill="none" fill-rule="evenodd">
        <g id="Group" transform="translate(0.41, 0.9191)" fill-rule="nonzero">
            <g fill="#0F1ED2" id="Path">
                <path d="M2.84217094e-14,4.34093132 L42.83,4.34093132 C52.66,4.34093132 64.21,13.4709313 69.42,18.5509313 L144.66,102.000931 L144.66,4.34093132 L170.19,4.34093132 L170.19,137.600931 L125.44,137.600931 C117.49,137.400931 109.61,135.680931 100.47,126.730931 L25.43,43.1009313 L25.43,137.590931 L2.84217094e-14,137.590931 L2.84217094e-14,4.33093132 L2.84217094e-14,4.33093132 L2.84217094e-14,4.34093132 Z"></path>
                <path d="M532.96,138.510931 C502.32,142.740931 471.41,143.120931 440.3,140.510931 C422.11,138.990931 404.36,135.170931 387.99,126.670931 C367.44,116.010931 360.91,92.0009313 361.16,70.2209313 C361.39,50.1109313 367.38,28.7509313 385.24,17.0709313 C396.98,9.39093132 409.51,6.77093132 422.9,4.41093132 C459.29,-1.99906868 495.63,-0.569068677 531.17,3.30093132 L531.17,22.2909313 C489.29,14.2009313 445.12,16.2109313 430.07,35.4409313 C420.72,47.3809313 419.43,59.2909313 419.43,69.3309313 C419.43,87.4009313 425.56,114.760931 462.22,120.130931 C486.21,123.650931 509.84,120.900931 532.95,116.790931 L532.95,138.500931 L532.96,138.500931 L532.96,138.510931 Z"></path>
                <path d="M270.88,117.740931 C274.53,117.930931 332.25,118.110931 352.05,117.740931 L352.05,137.720931 C312.12,139.280931 273.76,139.910931 233.54,138.250931 C199.37,136.840931 193.48,119.640931 192.78,103.130931 L192.78,4.35093132 L350.1,4.35093132 L350.1,23.3409313 L248.4,23.3409313 L248.4,57.2709313 L341.07,57.2709313 L341.07,75.7809313 L248.4,75.7809313 C248.36,85.8009313 248.66,97.1409313 248.75,99.1909313 C249.29,112.130931 255.29,116.950931 270.88,117.750931 L270.88,117.750931 L270.88,117.740931 Z"></path>
            </g>
            <g transform="translate(653.8401, 22.533)" fill="#535A6E">
                <path d="M41.809911,81.9779312 L4.32991099,1.31793116 C3.80991099,0.197931158 2.49991099,-0.302068842 1.36991099,0.187931158 L1.36991099,0.187931158 C0.239910989,0.677931158 -0.290089011,1.97793116 0.159910989,3.11793116 L33.299911,85.6179312 C34.269911,87.9979312 37.009911,88.9779312 39.299911,87.9979312 L39.359911,87.9979312 C41.679911,86.9479312 42.839911,84.2379312 41.799911,81.9779312 L41.809911,81.9779312 L41.809911,81.9779312 Z" id="Path"></path>
                <path d="M57.259911,65.5779312 C56.119911,62.0879312 55.679911,58.4179312 55.679911,48.3779312 C55.679911,38.3379312 56.119911,34.6779312 57.259911,31.1779312 C60.329911,21.7779312 67.859911,16.9379312 77.869911,16.9379312 C87.879911,16.9379312 95.489911,21.7779312 98.559911,31.1779312 C99.699911,34.6679312 100.139911,38.3479312 100.139911,48.3779312 C100.139911,58.4079312 99.699911,62.0779312 98.559911,65.5779312 C95.489911,74.9779312 87.959911,79.8179312 77.869911,79.8179312 C67.779911,79.8179312 60.339911,74.9779312 57.259911,65.5779312 Z M90.639911,63.3379312 C91.339911,61.0979312 91.959911,57.1579312 91.959911,48.3779312 C91.959911,39.5979312 91.349911,35.6579312 90.639911,33.4179312 C88.799911,27.5979312 84.539911,24.3679312 77.869911,24.3679312 C71.199911,24.3679312 67.029911,27.5879312 65.179911,33.4179312 C64.479911,35.6579312 63.859911,39.5979312 63.859911,48.3779312 C63.859911,57.1579312 64.469911,61.0979312 65.179911,63.3379312 C67.019911,69.1579312 71.279911,72.3879312 77.869911,72.3879312 C84.459911,72.3879312 88.799911,69.1679312 90.639911,63.3379312 Z" id="Shape"></path>
                <path d="M111.329911,78.8379312 C110.799911,78.8379312 110.449911,78.4779312 110.519911,77.9379312 L110.519911,36.8279312 C110.449911,36.2879312 110.799911,35.9279312 111.329911,35.9279312 L116.949911,35.9279312 C117.479911,35.9279312 117.829911,36.2879312 117.829911,36.8279312 L117.829911,41.2179312 L117.919911,41.2179312 C119.759911,37.5479312 123.449911,34.9479312 129.069911,34.9479312 C132.409911,34.9479312 135.569911,36.1979312 137.669911,38.1679312 C138.109911,38.6179312 138.199911,38.9779312 137.849911,39.4179312 L134.599911,43.8079312 C134.249911,44.2579312 133.809911,44.3479312 133.369911,43.9879312 C131.439911,42.7379312 129.329911,41.9279312 126.869911,41.9279312 C120.459911,41.9279312 117.829911,47.0379312 117.829911,54.4679312 L117.829911,77.9379312 C117.829911,78.4779312 117.479911,78.8379312 116.949911,78.8379312 L111.329911,78.8379312 L111.329911,78.8379312 Z" id="Path"></path>
                <path d="M143.609911,46.4979312 C145.979911,39.0679312 152.119911,34.9479312 160.199911,34.9479312 C166.609911,34.9479312 171.519911,37.7279312 174.599911,42.1979312 C174.859911,42.6479312 174.859911,43.0079312 174.339911,43.4479312 L170.479911,46.6779312 C170.039911,47.0379312 169.599911,47.0379312 169.249911,46.5879312 C166.789911,43.4479312 164.419911,41.9279312 160.209911,41.9279312 C155.639911,41.9279312 152.219911,44.1679312 150.819911,48.6479312 C150.119911,50.8879312 149.849911,53.5779312 149.849911,57.3379312 C149.849911,61.0979312 150.109911,63.8779312 150.819911,66.1179312 C152.219911,70.5979312 155.649911,72.8379312 160.209911,72.8379312 C164.419911,72.8379312 166.789911,71.3179312 169.249911,68.1779312 C169.599911,67.7279312 170.039911,67.7279312 170.479911,68.0879312 L174.339911,71.3079312 C174.869911,71.7579312 174.869911,72.1179312 174.599911,72.5579312 C171.529911,77.0379312 166.609911,79.8179312 160.199911,79.8179312 C152.119911,79.8179312 145.979911,75.6979312 143.609911,68.2679312 C142.819911,65.6679312 142.289911,62.1779312 142.289911,57.3379312 C142.289911,52.4979312 142.819911,49.0979312 143.609911,46.4979312 L143.609911,46.4979312 L143.609911,46.4979312 Z" id="Path"></path>
                <path d="M210.689911,78.8379312 C210.159911,78.8379312 209.809911,78.4779312 209.809911,77.9379312 L209.809911,52.8579312 C209.809911,45.9579312 206.739911,41.9279312 200.419911,41.9279312 C194.709911,41.9279312 190.759911,46.0479312 190.759911,52.4079312 L190.759911,77.9379312 C190.759911,78.4779312 190.409911,78.8379312 189.879911,78.8379312 L184.259911,78.8379312 C183.729911,78.8379312 183.379911,78.4779312 183.379911,77.9379312 L183.379911,18.8279312 C183.379911,18.2879312 183.729911,17.9279312 184.259911,17.9279312 L189.879911,17.9279312 C190.409911,17.9279312 190.759911,18.2879312 190.759911,18.8279312 L190.759911,40.7679312 L190.849911,40.7679312 C192.869911,37.4579312 196.909911,34.9479312 202.609911,34.9479312 C211.739911,34.9479312 217.179911,41.3079312 217.179911,51.0679312 L217.179911,77.9379312 C217.179911,78.4779312 216.829911,78.8379312 216.299911,78.8379312 L210.679911,78.8379312 L210.679911,78.8379312 L210.689911,78.8379312 Z" id="Path"></path>
                <path d="M599.399911,78.8379312 C598.869911,78.8379312 598.519911,78.4779312 598.519911,77.9379312 L598.519911,74.1779312 L598.429911,74.1779312 C596.499911,77.3979312 592.369911,79.8179312 585.959911,79.8179312 C577.969911,79.8179312 571.829911,75.6079312 571.829911,66.9179312 C571.829911,58.2279312 577.979911,53.6579312 588.249911,53.6579312 L597.819911,53.6579312 C598.169911,53.6579312 598.349911,53.4779312 598.349911,53.1179312 L598.349911,49.9779312 C598.349911,44.0679312 596.069911,41.5579312 588.249911,41.5579312 C583.509911,41.5579312 580.519911,42.8079312 578.069911,44.6079312 C577.629911,44.9679312 577.099911,44.9679312 576.839911,44.5179312 L574.469911,40.3979312 C574.209911,39.8579312 574.299911,39.4979312 574.649911,39.1479312 C577.809911,36.6379312 582.729911,34.9379312 588.959911,34.9379312 C600.899911,34.9379312 605.459911,38.9679312 605.459911,49.5379312 L605.459911,77.9279312 C605.459911,78.4679312 605.109911,78.8279312 604.579911,78.8279312 L599.399911,78.8279312 L599.399911,78.8379312 Z M598.349911,64.9579312 L598.349911,60.2079312 C598.349911,59.8479312 598.169911,59.6679312 597.819911,59.6679312 L589.389911,59.6679312 C582.099911,59.6679312 578.939911,61.8179312 578.939911,66.6579312 C578.939911,71.0479312 582.099911,73.3779312 587.719911,73.3779312 C594.299911,73.3779312 598.339911,70.2479312 598.339911,64.9579312 L598.349911,64.9579312 L598.349911,64.9579312 Z" id="Shape"></path>
                <path d="M636.049911,78.8379312 C635.519911,78.8379312 635.169911,78.4779312 635.169911,77.9379312 L635.169911,18.8279312 C635.169911,18.2879312 635.519911,17.9279312 636.049911,17.9279312 L641.669911,17.9279312 C642.199911,17.9279312 642.549911,18.2879312 642.549911,18.8279312 L642.549911,40.8579312 L642.639911,40.8579312 C644.659911,37.4579312 648.259911,34.9479312 654.579911,34.9479312 C661.869911,34.9479312 666.959911,38.4379312 669.059911,45.2479312 C670.199911,48.6479312 670.549911,52.0579312 670.549911,57.3379312 C670.549911,62.6179312 670.199911,66.1179312 669.059911,69.5179312 C666.949911,76.3279312 661.859911,79.8179312 654.579911,79.8179312 C648.259911,79.8179312 644.659911,77.2179312 642.639911,73.8179312 L642.549911,73.8179312 L642.549911,77.9379312 C642.549911,78.4779312 642.199911,78.8379312 641.669911,78.8379312 L636.049911,78.8379312 L636.049911,78.8379312 Z M662.029911,66.2979312 C662.729911,64.0579312 662.999911,61.2779312 662.999911,57.3379312 C662.999911,53.3979312 662.739911,50.7079312 662.029911,48.3779312 C660.629911,44.1679312 657.469911,41.9279312 652.809911,41.9279312 C648.149911,41.9279312 644.909911,44.0779312 643.509911,48.3779312 C642.809911,50.5279312 642.539911,53.0379312 642.539911,57.3379312 C642.539911,61.6379312 642.799911,64.2379312 643.509911,66.2979312 C644.909911,70.5979312 648.159911,72.8379312 652.809911,72.8379312 C657.459911,72.8379312 660.619911,70.5079312 662.029911,66.2979312 Z" id="Shape"></path>
                <path d="M680.699911,78.8379312 C680.169911,78.8379312 679.819911,78.4779312 679.819911,77.9379312 L679.819911,36.8279312 C679.819911,36.2879312 680.169911,35.9279312 680.699911,35.9279312 L686.319911,35.9279312 C686.849911,35.9279312 687.199911,36.2879312 687.199911,36.8279312 L687.199911,41.2179312 L687.289911,41.2179312 C689.129911,37.5479312 692.819911,34.9479312 698.439911,34.9479312 C701.779911,34.9479312 704.939911,36.1979312 707.039911,38.1679312 C707.479911,38.6179312 707.569911,38.9779312 707.209911,39.4179312 L703.959911,43.8079312 C703.609911,44.2579312 703.169911,44.3479312 702.729911,43.9879312 C700.799911,42.7379312 698.689911,41.9279312 696.229911,41.9279312 C689.819911,41.9279312 687.189911,47.0379312 687.189911,54.4679312 L687.189911,77.9379312 C687.189911,78.4779312 686.839911,78.8379312 686.309911,78.8379312 L680.689911,78.8379312 L680.699911,78.8379312 L680.699911,78.8379312 Z" id="Path"></path>
                <path d="M716.709911,27.0379312 C716.179911,27.0379312 715.829911,26.6779312 715.829911,26.1479312 L715.829911,18.8379312 C715.829911,18.2979312 716.179911,17.9379312 716.709911,17.9379312 L722.679911,17.9379312 C723.209911,17.9379312 723.559911,18.2979312 723.559911,18.8379312 L723.559911,26.1479312 C723.559911,26.6879312 723.209911,27.0379312 722.679911,27.0379312 L716.709911,27.0379312 Z M716.889911,78.8379312 C716.359911,78.8379312 716.009911,78.4779312 716.009911,77.9379312 L716.009911,36.8279312 C716.009911,36.2879312 716.359911,35.9279312 716.889911,35.9279312 L722.509911,35.9279312 C723.039911,35.9279312 723.389911,36.2879312 723.389911,36.8279312 L723.389911,77.9379312 C723.389911,78.4779312 723.039911,78.8379312 722.509911,78.8379312 L716.889911,78.8379312 Z" id="Shape"></path>
                <path d="M735.279911,89.5879312 C734.929911,89.1379312 734.929911,88.7779312 735.369911,88.3379312 L738.969911,84.6679312 C739.409911,84.2179312 739.849911,84.2179312 740.289911,84.6679312 C743.189911,87.3579312 746.169911,88.9679312 750.209911,88.9679312 C757.139911,88.9679312 760.829911,85.2979312 760.829911,77.4179312 L760.829911,72.4079312 L760.739911,72.4079312 C758.809911,75.9879312 755.209911,78.3179312 749.069911,78.3179312 C741.959911,78.3179312 737.039911,74.6479312 734.939911,67.9279312 C733.889911,64.7079312 733.539911,61.5679312 733.539911,56.6379312 C733.539911,51.7079312 733.889911,48.5779312 734.939911,45.3579312 C737.049911,38.6379312 741.959911,34.9679312 749.069911,34.9679312 C755.209911,34.9679312 758.809911,37.2979312 760.739911,40.8779312 L760.829911,40.8779312 L760.829911,36.8479312 C760.829911,36.3079312 761.179911,35.9479312 761.709911,35.9479312 L767.329911,35.9479312 C767.859911,35.9479312 768.209911,36.3079312 768.209911,36.8479312 L768.209911,76.9779312 C768.209911,89.1579312 761.709911,95.9679312 749.859911,95.9679312 C743.979911,95.9679312 738.099911,93.3679312 735.289911,89.6079312 L735.289911,89.5879312 L735.279911,89.5879312 Z M759.859911,64.9579312 C760.559911,62.8079312 760.829911,60.2979312 760.829911,56.6279312 C760.829911,52.9579312 760.569911,50.5379312 759.859911,48.2979312 C758.369911,43.9079312 755.299911,41.9379312 750.909911,41.9379312 C746.519911,41.9379312 743.449911,44.1779312 742.039911,48.2979312 C741.339911,50.5379312 740.989911,53.1379312 740.989911,56.6279312 C740.989911,60.1179312 741.339911,62.8079312 742.039911,64.9579312 C743.439911,69.1679312 746.339911,71.4079312 750.909911,71.4079312 C755.479911,71.4079312 758.369911,69.3479312 759.859911,64.9579312 Z" id="Shape"></path>
                <path d="M806.899911,78.8379312 C806.369911,78.8379312 806.019911,78.4779312 806.019911,77.9379312 L806.019911,52.8579312 C806.019911,45.9579312 802.949911,41.9279312 796.629911,41.9279312 C790.919911,41.9279312 786.969911,46.0479312 786.969911,52.4079312 L786.969911,77.9379312 C786.969911,78.4779312 786.619911,78.8379312 786.089911,78.8379312 L780.469911,78.8379312 C779.939911,78.8379312 779.589911,78.4779312 779.589911,77.9379312 L779.589911,18.8279312 C779.589911,18.2879312 779.939911,17.9279312 780.469911,17.9279312 L786.089911,17.9279312 C786.619911,17.9279312 786.969911,18.2879312 786.969911,18.8279312 L786.969911,40.7679312 L787.059911,40.7679312 C789.079911,37.4579312 793.119911,34.9479312 798.819911,34.9479312 C807.949911,34.9479312 813.389911,41.3079312 813.389911,51.0679312 L813.389911,77.9379312 C813.389911,78.4779312 813.039911,78.8379312 812.509911,78.8379312 L806.889911,78.8379312 L806.899911,78.8379312 L806.899911,78.8379312 Z" id="Path"></path>
                <path d="M838.789911,79.2879312 C830.629911,79.2879312 827.469911,75.5279312 827.469911,67.1079312 L827.469911,42.5679312 C827.469911,42.2079312 827.289911,42.0279312 826.939911,42.0279312 L823.429911,42.0279312 C822.899911,42.0279312 822.549911,41.6679312 822.549911,41.1279312 L822.549911,36.8279312 C822.549911,36.2879312 822.899911,35.9279312 823.429911,35.9279312 L826.939911,35.9279312 C827.289911,35.9279312 827.469911,35.7479312 827.469911,35.3879312 L827.469911,23.2979312 C827.469911,22.7579312 827.819911,22.3979312 828.349911,22.3979312 L833.969911,22.3979312 C834.499911,22.3979312 834.849911,22.7579312 834.849911,23.2979312 L834.849911,35.3879312 C834.849911,35.7479312 835.029911,35.9279312 835.379911,35.9279312 L842.049911,35.9279312 C842.579911,35.9279312 842.929911,36.2879312 842.929911,36.8279312 L842.929911,41.1279312 C842.929911,41.6679312 842.579911,42.0279312 842.049911,42.0279312 L835.379911,42.0279312 C835.029911,42.0279312 834.849911,42.2079312 834.849911,42.5679312 L834.849911,66.8379312 C834.849911,71.1379312 836.429911,72.2979312 840.199911,72.2979312 L842.039911,72.2979312 C842.569911,72.2979312 842.919911,72.6579312 842.919911,73.1979312 L842.919911,78.3879312 C842.919911,78.9279312 842.569911,79.2879312 842.039911,79.2879312 L838.789911,79.2879312 L838.789911,79.2879312 Z" id="Path"></path>
                <path d="M852.289911,68.1779312 C851.409911,65.3979312 850.889911,62.2679312 850.889911,57.3379312 C850.889911,52.4079312 851.329911,49.0979312 852.209911,46.4979312 C854.579911,39.0679312 860.729911,34.9479312 868.709911,34.9479312 C876.689911,34.9479312 882.839911,39.1579312 885.209911,46.4979312 C886.089911,49.2779312 886.529911,52.2279312 886.529911,58.7679312 C886.529911,59.3079312 886.179911,59.6679312 885.559911,59.6679312 L858.959911,59.6679312 C858.609911,59.6679312 858.429911,59.8479312 858.429911,60.2079312 C858.429911,62.5379312 858.689911,63.9679312 859.129911,65.4079312 C860.799911,70.3379312 864.569911,72.8379312 869.749911,72.8379312 C874.929911,72.8379312 878.259911,70.7779312 880.549911,68.0879312 C880.989911,67.6379312 881.429911,67.5479312 881.869911,67.9079312 L885.469911,71.2179312 C885.909911,71.5779312 885.909911,72.0279312 885.559911,72.4679312 C882.219911,76.7679312 876.519911,79.8079312 869.139911,79.8079312 C860.619911,79.8079312 854.569911,75.5979312 852.289911,68.1679312 L852.289911,68.1679312 L852.289911,68.1779312 Z M878.449911,53.6679312 C878.799911,53.6679312 878.979911,53.4879312 878.979911,53.1279312 C878.979911,51.1579312 878.799911,49.6379312 878.359911,48.2879312 C876.959911,43.9879312 873.439911,41.5679312 868.699911,41.5679312 C863.959911,41.5679312 860.449911,43.9879312 859.039911,48.2879312 C858.599911,49.6279312 858.419911,51.1579312 858.419911,53.1279312 C858.419911,53.4879312 858.599911,53.6679312 858.949911,53.6679312 L878.449911,53.6679312 Z" id="Shape"></path>
                <path d="M896.959911,78.8379312 C896.429911,78.8379312 896.079911,78.4779312 896.079911,77.9379312 L896.079911,36.8279312 C896.079911,36.2879312 896.429911,35.9279312 896.959911,35.9279312 L902.579911,35.9279312 C903.109911,35.9279312 903.459911,36.2879312 903.459911,36.8279312 L903.459911,41.2179312 L903.549911,41.2179312 C905.389911,37.5479312 909.079911,34.9479312 914.699911,34.9479312 C918.039911,34.9479312 921.199911,36.1979312 923.299911,38.1679312 C923.739911,38.6179312 923.829911,38.9779312 923.479911,39.4179312 L920.229911,43.8079312 C919.879911,44.2579312 919.439911,44.3479312 918.999911,43.9879312 C917.069911,42.7379312 914.959911,41.9279312 912.499911,41.9279312 C906.089911,41.9279312 903.459911,47.0379312 903.459911,54.4679312 L903.459911,77.9379312 C903.459911,78.4779312 903.109911,78.8379312 902.579911,78.8379312 L896.959911,78.8379312 L896.959911,78.8379312 Z" id="Path"></path>
                <path d="M989.359911,78.8379312 C988.829911,78.8379312 988.479911,78.4779312 988.309911,77.9379312 L978.829911,47.2179312 L978.649911,47.2179312 L969.079911,77.9379312 C968.909911,78.4779312 968.549911,78.8379312 968.029911,78.8379312 L962.939911,78.8379312 C962.409911,78.8379312 962.059911,78.4779312 961.889911,77.9379312 L948.719911,36.8279312 C948.539911,36.2879312 948.809911,35.9279312 949.329911,35.9279312 L955.299911,35.9279312 C955.909911,35.9279312 956.179911,36.1079312 956.439911,36.8279312 L965.739911,67.8179312 L965.919911,67.8179312 L975.399911,36.8279312 C975.569911,36.1979312 975.929911,35.9279312 976.449911,35.9279312 L981.019911,35.9279312 C981.549911,35.9279312 981.989911,36.1979312 982.159911,36.8279312 L991.729911,67.8179312 L991.899911,67.8179312 L1000.93991,36.8279312 C1001.10991,36.1079312 1001.46991,35.9279312 1002.07991,35.9279312 L1008.04991,35.9279312 C1008.57991,35.9279312 1008.83991,36.2879312 1008.65991,36.8279312 L995.399911,77.9379312 C995.219911,78.4779312 994.959911,78.8379312 994.349911,78.8379312 L989.349911,78.8379312 L989.359911,78.8379312 L989.359911,78.8379312 Z" id="Path"></path>
                <path d="M1014.85991,68.2679312 C1013.88991,65.3079312 1013.45991,62.3579312 1013.45991,57.3379312 C1013.45991,52.3179312 1013.89991,49.4579312 1014.85991,46.4979312 C1017.13991,39.1579312 1023.28991,34.9479312 1031.44991,34.9479312 C1039.60991,34.9479312 1045.75991,39.1579312 1048.03991,46.4979312 C1049.00991,49.4579312 1049.43991,52.4079312 1049.43991,57.3379312 C1049.43991,62.2679312 1048.99991,65.3079312 1048.03991,68.2679312 C1045.75991,75.5179312 1039.60991,79.8179312 1031.44991,79.8179312 C1023.28991,79.8179312 1017.13991,75.5179312 1014.85991,68.2679312 Z M1040.92991,66.1179312 C1041.62991,63.7879312 1041.89991,61.4579312 1041.89991,57.3379312 C1041.89991,53.2179312 1041.63991,50.9779312 1040.92991,48.6479312 C1039.52991,44.3479312 1036.09991,41.9279312 1031.44991,41.9279312 C1026.79991,41.9279312 1023.36991,44.3479312 1021.96991,48.6479312 C1021.26991,50.9779312 1020.99991,53.2179312 1020.99991,57.3379312 C1020.99991,61.4579312 1021.25991,63.7879312 1021.96991,66.1179312 C1023.36991,70.4179312 1026.79991,72.8379312 1031.44991,72.8379312 C1036.09991,72.8379312 1039.52991,70.4179312 1040.92991,66.1179312 Z" id="Shape"></path>
                <path d="M1059.62991,78.8379312 C1059.09991,78.8379312 1058.74991,78.4779312 1058.74991,77.9379312 L1058.74991,36.8279312 C1058.74991,36.2879312 1059.09991,35.9279312 1059.62991,35.9279312 L1065.24991,35.9279312 C1065.77991,35.9279312 1066.12991,36.2879312 1066.12991,36.8279312 L1066.12991,41.2179312 L1066.21991,41.2179312 C1068.05991,37.5479312 1071.74991,34.9479312 1077.36991,34.9479312 C1080.70991,34.9479312 1083.86991,36.1979312 1085.96991,38.1679312 C1086.40991,38.6179312 1086.49991,38.9779312 1086.14991,39.4179312 L1082.89991,43.8079312 C1082.54991,44.2579312 1082.10991,44.3479312 1081.66991,43.9879312 C1079.73991,42.7379312 1077.62991,41.9279312 1075.16991,41.9279312 C1068.75991,41.9279312 1066.12991,47.0379312 1066.12991,54.4679312 L1066.12991,77.9379312 C1066.12991,78.4779312 1065.77991,78.8379312 1065.24991,78.8379312 L1059.62991,78.8379312 L1059.62991,78.8379312 Z" id="Path"></path>
                <path d="M1105.91991,79.2879312 C1098.54991,79.2879312 1095.64991,75.7079312 1095.64991,67.9979312 L1095.64991,18.8279312 C1095.64991,18.2879312 1095.99991,17.9279312 1096.52991,17.9279312 L1102.14991,17.9279312 C1102.67991,17.9279312 1103.02991,18.2879312 1103.02991,18.8279312 L1103.02991,67.5479312 C1103.02991,71.1279312 1104.34991,72.2979312 1107.23991,72.2979312 L1108.90991,72.2979312 C1109.43991,72.2979312 1109.78991,72.6579312 1109.78991,73.1979312 L1109.78991,78.3879312 C1109.78991,78.9279312 1109.43991,79.2879312 1108.90991,79.2879312 L1105.91991,79.2879312 L1105.91991,79.2879312 Z" id="Path"></path>
                <path d="M1144.84991,78.8379312 C1144.31991,78.8379312 1143.96991,78.4779312 1143.96991,77.9379312 L1143.96991,73.8179312 L1143.87991,73.8179312 C1141.85991,77.2179312 1138.25991,79.8179312 1131.93991,79.8179312 C1124.64991,79.8179312 1119.55991,76.3279312 1117.45991,69.5179312 C1116.31991,66.1179312 1115.96991,62.7079312 1115.96991,57.3379312 C1115.96991,51.9679312 1116.31991,48.6479312 1117.45991,45.2479312 C1119.56991,38.4379312 1124.65991,34.9479312 1131.93991,34.9479312 C1138.25991,34.9479312 1141.85991,37.4579312 1143.87991,40.8579312 L1143.96991,40.8579312 L1143.96991,18.8279312 C1143.96991,18.2879312 1144.31991,17.9279312 1144.84991,17.9279312 L1150.46991,17.9279312 C1150.99991,17.9279312 1151.34991,18.2879312 1151.34991,18.8279312 L1151.34991,77.9379312 C1151.34991,78.4779312 1150.99991,78.8379312 1150.46991,78.8379312 L1144.84991,78.8379312 L1144.84991,78.8379312 Z M1142.99991,66.2979312 C1143.69991,64.2379312 1143.96991,61.6379312 1143.96991,57.3379312 C1143.96991,53.0379312 1143.70991,50.5279312 1142.99991,48.3779312 C1141.59991,44.0779312 1138.34991,41.9279312 1133.69991,41.9279312 C1129.04991,41.9279312 1125.88991,44.1679312 1124.47991,48.3779312 C1123.77991,50.7079312 1123.50991,53.4879312 1123.50991,57.3379312 C1123.50991,61.1879312 1123.76991,64.0579312 1124.47991,66.2979312 C1125.87991,70.5079312 1129.03991,72.8379312 1133.69991,72.8379312 C1138.35991,72.8379312 1141.59991,70.5979312 1142.99991,66.2979312 Z" id="Shape"></path>
                <path d="M227.109911,68.1779312 C226.229911,65.3979312 225.709911,62.2679312 225.709911,57.3379312 C225.709911,52.4079312 226.149911,49.0979312 227.029911,46.4979312 C229.399911,39.0679312 235.539911,34.9479312 243.529911,34.9479312 C251.519911,34.9479312 257.659911,39.1579312 260.029911,46.4979312 C260.909911,49.2779312 261.349911,52.2279312 261.349911,58.7679312 C261.349911,59.3079312 260.999911,59.6679312 260.379911,59.6679312 L233.779911,59.6679312 C233.429911,59.6679312 233.249911,59.8479312 233.249911,60.2079312 C233.249911,62.5379312 233.509911,63.9679312 233.949911,65.4079312 C235.619911,70.3379312 239.389911,72.8379312 244.569911,72.8379312 C249.749911,72.8379312 253.079911,70.7779312 255.369911,68.0879312 C255.809911,67.6379312 256.249911,67.5479312 256.689911,67.9079312 L260.289911,71.2179312 C260.729911,71.5779312 260.729911,72.0279312 260.379911,72.4679312 C257.039911,76.7679312 251.339911,79.8079312 243.959911,79.8079312 C235.449911,79.8079312 229.389911,75.5979312 227.109911,68.1679312 L227.109911,68.1679312 L227.109911,68.1779312 Z M253.269911,53.6679312 C253.619911,53.6679312 253.799911,53.4879312 253.799911,53.1279312 C253.799911,51.1579312 253.619911,49.6379312 253.189911,48.2879312 C251.789911,43.9879312 248.269911,41.5679312 243.529911,41.5679312 C238.789911,41.5679312 235.279911,43.9879312 233.869911,48.2879312 C233.429911,49.6279312 233.259911,51.1579312 233.259911,53.1279312 C233.259911,53.4879312 233.429911,53.6679312 233.789911,53.6679312 L253.279911,53.6679312 L253.269911,53.6679312 Z" id="Shape"></path>
                <path d="M326.329911,79.2879312 C318.169911,79.2879312 315.009911,75.5279312 315.009911,67.1079312 L315.009911,42.5679312 C315.009911,42.2079312 314.829911,42.0279312 314.479911,42.0279312 L310.969911,42.0279312 C310.439911,42.0279312 310.089911,41.6679312 310.089911,41.1279312 L310.089911,36.8279312 C310.089911,36.2879312 310.439911,35.9279312 310.969911,35.9279312 L314.479911,35.9279312 C314.829911,35.9279312 315.009911,35.7479312 315.009911,35.3879312 L315.009911,23.2979312 C315.009911,22.7579312 315.359911,22.3979312 315.889911,22.3979312 L321.509911,22.3979312 C322.039911,22.3979312 322.389911,22.7579312 322.389911,23.2979312 L322.389911,35.3879312 C322.389911,35.7479312 322.569911,35.9279312 322.919911,35.9279312 L329.589911,35.9279312 C330.119911,35.9279312 330.469911,36.2879312 330.469911,36.8279312 L330.469911,41.1279312 C330.469911,41.6679312 330.119911,42.0279312 329.589911,42.0279312 L322.919911,42.0279312 C322.569911,42.0279312 322.389911,42.2079312 322.389911,42.5679312 L322.389911,66.8379312 C322.389911,71.1379312 323.969911,72.2979312 327.739911,72.2979312 L329.579911,72.2979312 C330.109911,72.2979312 330.459911,72.6579312 330.459911,73.1979312 L330.459911,78.3879312 C330.459911,78.9279312 330.109911,79.2879312 329.579911,79.2879312 L326.329911,79.2879312 L326.329911,79.2879312 Z" id="Path"></path>
                <path d="M342.689911,78.8379312 C342.159911,78.8379312 341.809911,78.4779312 341.809911,77.9379312 L341.809911,36.8279312 C341.809911,36.2879312 342.159911,35.9279312 342.689911,35.9279312 L348.309911,35.9279312 C348.839911,35.9279312 349.189911,36.2879312 349.189911,36.8279312 L349.189911,41.2179312 L349.279911,41.2179312 C351.119911,37.5479312 354.809911,34.9479312 360.429911,34.9479312 C363.769911,34.9479312 366.929911,36.1979312 369.029911,38.1679312 C369.469911,38.6179312 369.559911,38.9779312 369.199911,39.4179312 L365.949911,43.8079312 C365.599911,44.2579312 365.159911,44.3479312 364.719911,43.9879312 C362.789911,42.7379312 360.679911,41.9279312 358.219911,41.9279312 C351.809911,41.9279312 349.179911,47.0379312 349.179911,54.4679312 L349.179911,77.9379312 C349.179911,78.4779312 348.829911,78.8379312 348.299911,78.8379312 L342.679911,78.8379312 L342.689911,78.8379312 L342.689911,78.8379312 Z" id="Path"></path>
                <path d="M399.599911,78.8379312 C399.069911,78.8379312 398.719911,78.4779312 398.719911,77.9379312 L398.719911,74.1779312 L398.629911,74.1779312 C396.699911,77.3979312 392.569911,79.8179312 386.159911,79.8179312 C378.169911,79.8179312 372.029911,75.6079312 372.029911,66.9179312 C372.029911,58.2279312 378.179911,53.6579312 388.449911,53.6579312 L398.019911,53.6579312 C398.369911,53.6579312 398.549911,53.4779312 398.549911,53.1179312 L398.549911,49.9779312 C398.549911,44.0679312 396.269911,41.5579312 388.459911,41.5579312 C383.719911,41.5579312 380.729911,42.8079312 378.279911,44.6079312 C377.839911,44.9679312 377.309911,44.9679312 377.049911,44.5179312 L374.679911,40.3979312 C374.419911,39.8579312 374.499911,39.4979312 374.849911,39.1479312 C378.009911,36.6379312 382.929911,34.9379312 389.159911,34.9379312 C401.099911,34.9379312 405.659911,38.9679312 405.659911,49.5379312 L405.659911,77.9279312 C405.659911,78.4679312 405.309911,78.8279312 404.779911,78.8279312 L399.599911,78.8279312 L399.599911,78.8379312 Z M398.539911,64.9579312 L398.539911,60.2079312 C398.539911,59.8479312 398.369911,59.6679312 398.009911,59.6679312 L389.579911,59.6679312 C382.289911,59.6679312 379.129911,61.8179312 379.129911,66.6579312 C379.129911,71.0479312 382.289911,73.3779312 387.909911,73.3779312 C394.489911,73.3779312 398.529911,70.2479312 398.529911,64.9579312 L398.539911,64.9579312 L398.539911,64.9579312 Z" id="Shape"></path>
                <path d="M430.679911,79.2879312 C422.519911,79.2879312 419.359911,75.5279312 419.359911,67.1079312 L419.359911,42.5679312 C419.359911,42.2079312 419.179911,42.0279312 418.829911,42.0279312 L415.319911,42.0279312 C414.789911,42.0279312 414.439911,41.6679312 414.439911,41.1279312 L414.439911,36.8279312 C414.439911,36.2879312 414.789911,35.9279312 415.319911,35.9279312 L418.829911,35.9279312 C419.179911,35.9279312 419.359911,35.7479312 419.359911,35.3879312 L419.359911,23.2979312 C419.359911,22.7579312 419.709911,22.3979312 420.239911,22.3979312 L425.859911,22.3979312 C426.389911,22.3979312 426.739911,22.7579312 426.739911,23.2979312 L426.739911,35.3879312 C426.739911,35.7479312 426.919911,35.9279312 427.269911,35.9279312 L433.939911,35.9279312 C434.469911,35.9279312 434.819911,36.2879312 434.819911,36.8279312 L434.819911,41.1279312 C434.819911,41.6679312 434.469911,42.0279312 433.939911,42.0279312 L427.269911,42.0279312 C426.919911,42.0279312 426.739911,42.2079312 426.739911,42.5679312 L426.739911,66.8379312 C426.739911,71.1379312 428.319911,72.2979312 432.089911,72.2979312 L433.929911,72.2979312 C434.459911,72.2979312 434.809911,72.6579312 434.809911,73.1979312 L434.809911,78.3879312 C434.809911,78.9279312 434.459911,79.2879312 433.929911,79.2879312 L430.679911,79.2879312 L430.679911,79.2879312 Z" id="Path"></path>
                <path d="M446.909911,27.0379312 C446.379911,27.0379312 446.029911,26.6779312 446.029911,26.1479312 L446.029911,18.8379312 C446.029911,18.2979312 446.379911,17.9379312 446.909911,17.9379312 L452.879911,17.9379312 C453.409911,17.9379312 453.759911,18.2979312 453.759911,18.8379312 L453.759911,26.1479312 C453.759911,26.6879312 453.409911,27.0379312 452.879911,27.0379312 L446.909911,27.0379312 Z M447.089911,78.8379312 C446.559911,78.8379312 446.209911,78.4779312 446.209911,77.9379312 L446.209911,36.8279312 C446.209911,36.2879312 446.559911,35.9279312 447.089911,35.9279312 L452.709911,35.9279312 C453.239911,35.9279312 453.589911,36.2879312 453.589911,36.8279312 L453.589911,77.9379312 C453.589911,78.4779312 453.239911,78.8379312 452.709911,78.8379312 L447.089911,78.8379312 Z" id="Shape"></path>
                <path d="M492.979911,78.8379312 C492.449911,78.8379312 492.099911,78.4779312 492.099911,77.9379312 L492.099911,52.8579312 C492.099911,45.9579312 489.029911,41.9279312 482.709911,41.9279312 C476.999911,41.9279312 473.049911,46.0479312 473.049911,52.4079312 L473.049911,77.9379312 C473.049911,78.4779312 472.699911,78.8379312 472.169911,78.8379312 L466.549911,78.8379312 C466.019911,78.8379312 465.669911,78.4779312 465.669911,77.9379312 L465.669911,36.8279312 C465.669911,36.2879312 466.019911,35.9279312 466.549911,35.9279312 L472.169911,35.9279312 C472.699911,35.9279312 473.049911,36.2879312 473.049911,36.8279312 L473.049911,40.7679312 L473.139911,40.7679312 C475.159911,37.4579312 479.199911,34.9479312 484.899911,34.9479312 C494.029911,34.9479312 499.469911,41.3079312 499.469911,51.0679312 L499.469911,77.9379312 C499.469911,78.4779312 499.119911,78.8379312 498.589911,78.8379312 L492.969911,78.8379312 L492.979911,78.8379312 L492.979911,78.8379312 Z" id="Path"></path>
                <path d="M510.059911,89.5879312 C509.709911,89.1379312 509.709911,88.7779312 510.149911,88.3379312 L513.749911,84.6679312 C514.189911,84.2179312 514.629911,84.2179312 515.069911,84.6679312 C517.969911,87.3579312 520.949911,88.9679312 524.989911,88.9679312 C531.919911,88.9679312 535.609911,85.2979312 535.609911,77.4179312 L535.609911,72.4079312 L535.519911,72.4079312 C533.589911,75.9879312 529.989911,78.3179312 523.849911,78.3179312 C516.739911,78.3179312 511.819911,74.6479312 509.719911,67.9279312 C508.669911,64.7079312 508.319911,61.5679312 508.319911,56.6379312 C508.319911,51.7079312 508.669911,48.5779312 509.719911,45.3579312 C511.829911,38.6379312 516.739911,34.9679312 523.849911,34.9679312 C529.989911,34.9679312 533.589911,37.2979312 535.519911,40.8779312 L535.609911,40.8779312 L535.609911,36.8479312 C535.609911,36.3079312 535.959911,35.9479312 536.489911,35.9479312 L542.109911,35.9479312 C542.639911,35.9479312 542.989911,36.3079312 542.989911,36.8479312 L542.989911,76.9779312 C542.989911,89.1579312 536.489911,95.9679312 524.639911,95.9679312 C518.759911,95.9679312 512.879911,93.3679312 510.069911,89.6079312 L510.069911,89.5879312 L510.059911,89.5879312 Z M534.639911,64.9579312 C535.339911,62.8079312 535.609911,60.2979312 535.609911,56.6279312 C535.609911,52.9579312 535.349911,50.5379312 534.639911,48.2979312 C533.149911,43.9079312 530.079911,41.9379312 525.689911,41.9379312 C521.299911,41.9379312 518.229911,44.1779312 516.819911,48.2979312 C516.119911,50.5379312 515.769911,53.1379312 515.769911,56.6279312 C515.769911,60.1179312 516.119911,62.8079312 516.819911,64.9579312 C518.219911,69.1679312 521.119911,71.4079312 525.689911,71.4079312 C530.259911,71.4079312 533.149911,69.3479312 534.639911,64.9579312 Z" id="Shape"></path>
                <path d="M268.989911,72.5879312 C268.689911,72.1779312 268.639911,71.6779312 268.969911,71.3379312 L272.419911,67.8879312 C272.769911,67.5279312 273.429911,67.4979312 273.769911,67.8179312 C277.699911,71.6479312 282.139911,72.5779312 285.149911,72.5979312 C290.269911,72.6179312 294.329911,70.4779312 294.339911,66.6879312 C294.349911,63.6779312 292.649911,62.1179312 284.679911,60.4479312 C273.619911,58.1279312 269.819911,54.7879312 269.849911,47.1079312 C269.869911,40.1479312 275.599911,34.9179312 285.519911,34.9478027 C291.669911,34.9679312 296.929911,37.0479312 300.429911,39.7479312 C300.869911,40.0179312 300.869911,40.5579312 300.599911,40.9979312 L297.599911,44.8379312 C297.249911,45.2879312 296.809911,45.2879312 296.369911,45.0179312 C293.659911,43.2179312 290.609911,41.5979312 285.549911,41.5779312 C281.909911,41.5779312 277.919911,43.4179312 277.899911,46.9479312 C277.889911,50.5079312 280.759911,52.0079312 289.279911,53.6079312 C298.829911,55.4079312 302.279911,60.0079312 302.259997,66.3379312 C302.229911,74.5379312 297.229911,79.8679312 285.599911,79.8281548 C277.869911,79.7979312 272.649911,76.9379312 268.979911,72.5879312 L268.989911,72.5879312 L268.989911,72.5879312 Z" id="Path"></path>
            </g>
        </g>
    </g>
</svg>