<svg width="89" height="89" xmlns="http://www.w3.org/2000/svg"><g fill="none" fill-rule="evenodd"><path fill="none" d="M0 0h89v89H0z"/><g fill="#FFF"><path d="M14.795 28.503c-2.165-.028-3.659-.18-5.337-1.555v2.41c1.861.702 3.111.64 5.094.67 4.116.092 9.057-1.189 8.875-6.22-.151-3.873-2.439-4.73-5.185-6.315l-3.629-2.104c-1.434-.824-2.53-1.706-2.683-3.324-.215-2.5 2.53-4.18 5.031-4.025 1.768.06 3.05.335 4.332 1.556v-2.35c-1.649-.668-2.777-.608-4.575-.668-3.842-.125-7.383 2.008-7.353 5.608.031 2.44 1.344 3.936 3.57 5.246l4.149 2.38c1.888 1.067 3.505 2.193 3.505 4.36 0 2.839-2.194 4.456-5.794 4.331M24.522 8.769c.23.288.318.49.405.81l7.628 20.544 5.578-15.374 5.693 15.258 7.197-20.055c.114-.348.26-.549.432-.867.26-.406.432-.663.751-1.04h-3.181c.175.26.23.463.262.782.029.374-.087.633-.262 1.008L44.114 24.43 38.798 9.664c-.114-.376-.176-.636-.086-1.04.056-.233.116-.347.23-.55h-3.929c.231.231.402.404.605.666.232.288.435.46.579.839l1.07 2.715L32.73 24.37 27.44 9.348c-.086-.233-.057-.407 0-.64.03-.257.118-.403.264-.634H23.74c.348.203.52.377.781.695M52.159 14.459c.148.225.234.4.313.672.105.306.122.484.122.772v12.36c0 .297 0 .495-.117.767v.004l-.005.003a1.643 1.643 0 0 1-.232.488l-.077.115h2.649l-.069-.11-.093-.148c-.087-.127-.156-.23-.183-.397-.06-.498-.06-1.178-.06-1.962V15.861c0-.223 0-.354.14-.835.078-.216.14-.375.238-.573l.054-.107h-2.755l.075.113zM78.21 8.048h-2.427c.084.317.144.52.201.836.203 1.04.144 1.707.144 2.746v13.697L61.014 8.075h-3.177c.29.176.464.345.608.665.172.32.23.577.23.925v18.029c0 .435 0 .723-.116 1.158-.056.32-.171.49-.374.778h2.744c-.116-.375-.201-.576-.26-.924-.2-.952-.2-.952-.2-1.587V11.08l17.453 19.274-.03-20.2c0-.432 0-.689.089-1.152.057-.377.114-.61.23-.953M31.748 48.937c0-2.83-1.332-4.596-3.73-5.406l-.867-.317.81-.49c1.561-.894 2.4-1.995 2.341-4.047-.144-2.802-2.311-5.172-5.116-5.172h-6.53c.204.292.32.49.462.81.206.462.29.78.29 1.27v17.77c0 .436-.059.724-.204 1.127-.116.234-.173.378-.344.61h5.751c4.39 0 7.107-2.34 7.137-6.155zM21.692 34.949h2.11c2.684 0 4.159 1.56 4.274 3.728.087 2.34-1.357 4.047-4.507 4.047h-1.877v-7.775zm2.223 18.842c-.81.058-1.327-.029-2.107-.26v-9.249c.72-.172 1.153-.172 1.878-.172 2.857.085 5.662 1.098 5.75 4.798.086 3.119-2.689 4.71-5.52 4.883zM51.904 35.5c0-.406-.032-.634.028-1.039.059-.376.116-.609.231-.954h-3.009c.147.345.207.578.294.954.059.405.059.662.059 1.094v12.37c0 3.065-2.313 5.52-5.61 5.607-3.323.114-6.297-2.455-6.297-5.782V35.41c0-.373-.032-.634.055-1.01.06-.375.12-.58.261-.893H34.97c.144.4.203.665.26 1.124.057.378.027.607.027.982v12.4c0 4.391 3.873 7.453 8.64 7.397 4.453-.088 8.007-3.123 8.007-7.282V35.5zM71.254 54.254c-.666-.579-1.185-1.273-1.85-2.137l-5.143-6.534a13.956 13.956 0 0 0-1.504-1.646c-.176-.142-.261-.262-.432-.406 3.18.492 5.808-2.08 5.865-5.085.087-3.092-2.456-4.968-5.29-4.968h-6.5c.175.316.32.517.403.894.147.811.176 1.27.176 2.08v15.49c0 .81 0 1.76-.087 2.197-.029.345-.173.547-.347.894h3.177c-.144-.405-.26-.636-.316-1.04-.117-.462-.087-.724-.087-1.182v-9.915c.144.087.26.144.375.26.26.202.346.403.579.694l8.667 11.268h3.412a15.033 15.033 0 0 1-1.098-.864M59.347 42.637v-7.454c.84-.378 1.39-.406 2.283-.406 3.498.145 4.076 1.995 4.19 3.726.174 2.398-1.619 3.961-4.596 4.192-.689.027-1.47 0-1.877-.058M44.388 59.745c.202 1.04.144 1.704.144 2.747v13.696L29.418 58.935h-3.179c.291.176.462.347.608.663.174.323.232.58.232.926v18.031c0 .437 0 .723-.117 1.157-.057.318-.174.49-.375.778h2.745c-.115-.372-.204-.576-.26-.924-.202-.952-.202-.952-.202-1.585V61.94l17.453 19.275-.027-20.198c0-.433 0-.696.085-1.156.059-.375.116-.608.233-.953h-2.43c.087.318.145.52.204.837M61.088 78.874h-6.905V69.22h5.778c.345 0 .608 0 .954.059.49.115.779.202 1.212.405v-2.052h-8.03v-7.107h5.864c.492 0 .839-.086 1.33.084.347.118.58.262.836.522v-2.168H51.116c.207.203.292.348.41.605.115.318.172.552.172.925v18.092c0 .405.057.693-.057 1.095a2.24 2.24 0 0 1-.377.81h12.452l.75-2.424c-.34.23-.576.345-.981.459-.897.29-1.443.348-2.397.348M17.903 68.611a2.037 2.037 0 0 0-.308-.091c-.046-.01-.147.031-.184.001l-.027-.039c-.125.002-.498.117-.612.18-.284.149-.395.3-.64.323l-.053.009a.909.909 0 0 1-.258-.192c-.024-.044.009-.149.018-.197.103-.493.826-.337 1.117-.472a.9.9 0 0 0 .35-.336c.078-.125.193-.615.153-.752-.014-.046-.19-.56-.114-.781.018-.056.066-.192.043-.248-.012-.028-.108-.108-.108-.108-.15.056-.28.144-.43.176-.164.036-.356-.005-.512.02-.301.037-.688.223-.841.553-.308.664.006 1.065.025 1.186.005.05.03.042.038.096.006.155-.294.359-.443.338-.108-.017-.304-.22-.316-.368a1.82 1.82 0 0 1 .042-.333c.015-.046.046-.2.043-.246-.01-.147.033-.38-.031-.534-.026-.057-.171-.35-.22-.402a6.967 6.967 0 0 0-.538-.333 5.53 5.53 0 0 0-.267-.025 32.977 32.977 0 0 0-.45-.027l-.41-.237c-.028-.015-.155.025-.167.025-.02.05-.07.113-.068.168.01.197.138.31.089.525-.056.23-.183.473-.18.71.004.318.267.721.543.912.048.037.159.05.205.076.095.05.134.119.228.147.044.017.144-.015.182-.006.034.01.56.354.58.398.027.052-.022.18-.057.223-.106.135-.252.135-.38.116l-.044.028c-.053-.036-.14-.08-.162-.1-.045-.044-.068-.13-.117-.17a4.59 4.59 0 0 0-.417-.198c-.144-.058-.5-.058-.657.027-.084.047-.236.21-.303.27-.035.036-.095.051-.125.089-.123.157-.163.418-.247.573-.065.114-.18.184-.218.304-.033.108.005.13.063.266.006 0 .056-.01.056-.01s.292.203.426.347c.13.144.492.326.652.318.07 0 .34-.048.39-.058.125-.021.321-.111.437-.212.042-.036.336-.507.354-.552.007-.03.35-.435.493-.346.014.004.21.175.248.26.02.05-.01.218-.032.266-.066.137-.247.19-.384.332a2.57 2.57 0 0 0-.279.44c-.03.076-.006.166-.006.25-.007.225.015.5.26.772.039.044.162.123.207.165.166.165.357.483.553.444.192-.039.294-.26.504-.382.222-.132.446-.345.536-.555.037-.093.022-.294.033-.396 0-.012-.065-.32-.123-.44-.042-.087-.077-.226-.174-.339-.119-.135-.408-.204-.476-.375-.006-.009.033-.072.033-.082-.003-.053-.045-.066-.052-.119a.852.852 0 0 1 .087-.274c.163-.183.5-.116.613 0 .16.163.123.366.216.528.204.36.732.6 1.007.558.058-.008.262-.04.32-.068.166-.082.3-.246.383-.328.13-.13.41-.254.492-.404.063-.123-.129-.474-.183-.613-.067-.168-.223-.543-.406-.67M77.162 69.587c-.08-.156-.123-.419-.247-.575-.027-.037-.087-.052-.123-.088-.07-.06-.216-.224-.302-.269-.159-.087-.514-.087-.658-.03a4.214 4.214 0 0 0-.419.203c-.046.039-.067.124-.115.165-.024.022-.111.067-.164.102l-.04-.03c-.128.02-.276.02-.383-.113-.036-.046-.085-.172-.057-.225.02-.045.545-.382.58-.397.037-.01.139.02.184.007.096-.031.13-.096.226-.148.048-.027.16-.04.207-.075.273-.188.539-.594.543-.914.002-.237-.126-.48-.18-.708-.052-.214.078-.33.086-.526.003-.056-.047-.119-.065-.168-.015 0-.142-.042-.17-.024-.028.013-.412.235-.412.235l-.447.026c-.033.003-.232.022-.27.027a11.5 11.5 0 0 0-.537.334 2.831 2.831 0 0 0-.216.404c-.067.148-.024.384-.034.53-.002.046.03.2.043.245.024.07.047.329.044.338-.01.144-.21.35-.318.364-.149.021-.447-.183-.441-.339.004-.052.033-.045.037-.096.017-.115.333-.52.026-1.185-.155-.331-.543-.516-.842-.555-.154-.02-.346.017-.511-.016-.152-.033-.282-.123-.43-.179 0 0-.097.08-.107.11-.024.054.027.192.042.246.073.222-.102.735-.117.781-.04.137.08.63.157.752a.874.874 0 0 0 .348.34c.291.13 1.013-.025 1.118.468.012.048.04.153.018.197-.023.048-.23.19-.258.192l-.053-.008c-.244-.022-.361-.175-.639-.32-.117-.064-.489-.18-.616-.184l-.024.04c-.038.03-.138-.011-.183 0a2.143 2.143 0 0 0-.31.09c-.184.128-.341.502-.406.673-.054.138-.246.49-.181.613.08.149.36.27.489.4.087.085.216.248.385.33.059.03.261.06.321.073.272.037.803-.203 1.005-.564.092-.16.054-.362.216-.528.11-.116.452-.182.615 0a.829.829 0 0 1 .084.277c-.007.05-.05.065-.05.117 0 .01.035.072.034.084-.068.168-.36.239-.477.375-.096.111-.134.25-.177.34-.057.12-.12.425-.12.437.009.102-.005.303.034.395.086.21.31.424.534.556.21.122.31.344.504.381.197.04.389-.277.557-.44.042-.044.165-.124.207-.167.243-.269.26-.545.256-.774 0-.081.023-.173-.006-.25a2.79 2.79 0 0 0-.279-.44c-.136-.141-.32-.194-.385-.332-.021-.046-.05-.214-.03-.265.034-.086.232-.255.247-.261.144-.087.485.318.495.346.014.047.312.518.353.554.115.1.312.19.435.213.052.007.32.057.391.058.162.005.52-.175.651-.315.135-.147.43-.35.43-.35l.053.007c.056-.135.1-.156.062-.263-.038-.118-.153-.192-.218-.304"/></g></g></svg>